<?xml version="1.0" encoding="UTF-8"?>
<svg version="1.1" viewBox="0 0 100 50" xmlns="http://www.w3.org/2000/svg">
	<path d="m14.337 0h85.663l-14.337 50h-85.663z" fill="#eaedf6"/>
	<path d="m1.4337 45h85.663l-1.4338 5h-85.663z" fill="#254aa5"/>
	<path d="m71.499 42.593c2.3604-0.24614 3.0003 1.5989 4.5571 1.9469 0.97506 0.21787 1.5561-0.14773 1.5189-0.84387-0.8856-1.0285-2.5587-1.7228-4.4785-1.7228-2.3783 0-4.3788 1.0651-4.9711 2.5124 0.32747-0.60626 1.2023-1.6661 3.3736-1.8927" fill="#3a5cae"/>
	<path d="m78.247 45.375c0-0.61027-0.24493-1.1823-0.67133-1.6773 0.0363 0.69533-0.5444 1.0601-1.5191 0.8424-1.5568-0.34787-2.1965-2.1929-4.5569-1.9468-2.1695 0.2264-3.0445 1.2844-3.3727 1.8908-0.1168 0.28413-0.18 0.58253-0.18 0.89093z" fill="#254aa5"/>
	<path d="m5.4971 30.832-3.7324 13.014h15.201v-13.014z" fill="#3a5cae"/>
	<path d="m7.9503 22.277-4.6895 16.354h12.461v-12.557l-3.7969-3.7969z" fill="#d3dbed"/>
	<path d="m11.926 22.278v3.7967h3.7965z" fill="#3a5cae"/>
	<path d="m6.6163 26.928-0.21679 0.75586h7.4238v-0.75586z" fill="#3a5cae"/>
	<path d="m6.1163 28.67-0.21484 0.75391h7.9219v-0.75391z" fill="#3a5cae"/>
	<path d="m5.6182 30.41-0.2168 0.75586h8.4219v-0.75586z" fill="#3a5cae"/>
	<path d="m5.2178 31.805-3.8379 13.383h15.887v-13.383z" fill="#3a5cae"/>
	<path d="m14.263 45.188h6.0082l1.2919-9.8424h-8.5921z" fill="#254aa5"/>
	<path d="m18.902 31.424-0.20312 0.92969h-5.2285v1.2109h-1.1504v1.7812h9.8926v-1.7812h-1.1504v-1.2109h-1.1504l-0.20312-0.92969z" fill="#d3dbed"/>
	<path d="m18.071 43.118c-0.36813-0.90893-0.65373-2.0012-0.47493-2.9691 0.22227-1.202-0.1156-2.3812-0.5384-3.2963 0.0689-0.01 0.13867-0.0148 0.2092-0.0148 1.2275 0 2.2227 1.4551 2.2227 3.2501 0 1.3803-0.58854 2.5585-1.4185 3.03" fill="#6680c0"/>
	<path d="m16.42 37.082c0.3904 0.8276 0.71174 1.892 0.5172 2.9445-0.2044 1.1059 0.0976 2.3093 0.49307 3.3013-0.0541 6e-3 -0.10853 0.01-0.16373 0.01-1.2275 0-2.2227-1.4552-2.2227-3.2501 0-1.3567 0.56867-2.5187 1.3761-3.0055" fill="#6680c0"/>
	<path d="m29.466 3.9766c-1.1452 0-2.0742 0.92694-2.0742 2.0723v30.482c0 1.1453 0.92901 2.0742 2.0742 2.0742h19.439v4.543l-1.334 0.91211h-1.5371l-0.5332 1.3144h16.865l-0.53321-1.3144h-1.5371l-1.334-0.91211v-4.543h19.439c1.1451 0 2.0742-0.92888 2.0742-2.0742v-30.482c0-1.1453-0.92915-2.0723-2.0742-2.0723z" fill="#254aa5"/>
	<path d="m78.325 32.139h-48.783v-26.377h48.783z" fill="#eaedf6"/>
	<path d="m54.898 36.369c0 0.53254-0.43147 0.964-0.96387 0.964s-0.96387-0.43146-0.96387-0.964c0-0.53226 0.43147-0.96386 0.96387-0.96386s0.96387 0.4316 0.96387 0.96386" fill="#3a5cae"/>
	<path d="m52.848 17.865h-21.134v-9.9313h21.134v9.9313z" fill="#d3dbed"/>
	<path d="m43.134 9.895c-0.62258 0.0155-1.2541 0.0889-1.8984 0.22461-1.3104 0.34944-2.502 1.332-2.502 1.332s-3.2041 0.25078-4.0957 0.96094c-0.58443 0.4655-0.41974 1.4037 0.26172 1.8789h1.293a1.1631 1.1634 0 0 0 1.1211 0.85742 1.1631 1.1634 0 0 0 1.1211-0.85742h7.1856l0.26563-0.0215a1.1631 1.1634 0 0 0 1.125 0.8789 1.1631 1.1634 0 0 0 1.1602-1.0684l0.26172-0.0215s0.73213-0.0488 1.1992-0.0488c0.45709-7e-3 0.71725-0.73443 0.63477-1.3125-0.12006-0.72092-0.42635-0.55752-0.21875-1.2129 0.20754-0.65536-1.5176-0.38281-1.5176-0.38281-1.7484-0.78956-3.5287-1.2536-5.3965-1.207z" fill="#254aa5"/>
	<path d="m76.154 17.865h-21.134v-9.9313h21.134z" fill="#d3dbed"/>
	<path d="m52.848 29.968h-21.134v-9.9313h21.134z" fill="#d3dbed"/>
	<path d="m76.154 29.968h-21.134v-9.9313h21.134z" fill="#d3dbed"/>
	<path d="m66.439 9.8958c-0.62259 0.0155-1.2541 0.0889-1.8984 0.22461-1.3104 0.34943-2.502 1.332-2.502 1.332 1e-5 0-3.2041 0.25077-4.0957 0.96094-0.58442 0.46549-0.41973 1.4037 0.26172 1.8789h1.293a1.1631 1.1634 0 0 0 1.1211 0.85742 1.1631 1.1634 0 0 0 1.1211-0.85742h7.1855l0.26563-0.0215a1.1631 1.1634 0 0 0 1.125 0.8789 1.1631 1.1634 0 0 0 1.1602-1.0684l0.26172-0.0215s0.73213-0.0488 1.1992-0.0488c0.45709-7e-3 0.71726-0.73443 0.63477-1.3125-0.12006-0.72092-0.42635-0.55752-0.21875-1.2129 0.20755-0.65536-1.5176-0.38281-1.5176-0.38281-1.7484-0.78956-3.5287-1.2536-5.3965-1.207z" fill="#254aa5"/>
	<path d="m66.439 22.755c-0.62259 0.0155-1.2541 0.0889-1.8984 0.22461-1.3104 0.34943-2.502 1.332-2.502 1.332 1e-5 0-3.2041 0.25077-4.0957 0.96094-0.58442 0.46549-0.41973 1.4037 0.26172 1.8789h1.293a1.1631 1.1634 0 0 0 1.1211 0.85742 1.1631 1.1634 0 0 0 1.1211-0.85742h7.1855l0.26563-0.0215a1.1631 1.1634 0 0 0 1.125 0.8789 1.1631 1.1634 0 0 0 1.1602-1.0684l0.26172-0.0215s0.73213-0.0488 1.1992-0.0488c0.45709-7e-3 0.71726-0.73443 0.63477-1.3125-0.12006-0.72092-0.42635-0.55752-0.21875-1.2129 0.20755-0.65536-1.5176-0.38281-1.5176-0.38281-1.7484-0.78956-3.5287-1.2536-5.3965-1.207z" fill="#254aa5"/>
	<path d="m43.134 22.755c-0.62258 0.0155-1.2541 0.0889-1.8984 0.22461-1.3104 0.34943-2.502 1.332-2.502 1.332s-3.2041 0.25077-4.0957 0.96094c-0.58443 0.46549-0.41974 1.4037 0.26171 1.8789h1.293a1.1631 1.1634 0 0 0 1.1211 0.85742 1.1631 1.1634 0 0 0 1.1211-0.85742h7.1856l0.26562-0.0215a1.1631 1.1634 0 0 0 1.125 0.8789 1.1631 1.1634 0 0 0 1.1602-1.0684l0.26172-0.0215s0.73213-0.0488 1.1992-0.0488c0.45708-7e-3 0.71725-0.73443 0.63476-1.3125-0.12006-0.72092-0.42634-0.55752-0.21875-1.2129 0.20755-0.65536-1.5176-0.38281-1.5176-0.38281-1.7484-0.78956-3.5287-1.2536-5.3965-1.207z" fill="#254aa5"/>
</svg>
