<svg version="1.1" viewBox="0 0 100 50" xmlns="http://www.w3.org/2000/svg">
	<path d="m14.337 0h85.663l-14.337 50h-85.663z" fill="#eaedf6"/>
	<path d="m14.567 15.182-4.8359 0.88477-9.7305 33.934h28.918c0.0111-2.8529-0.85782-5.8392-2.9668-8.752v-18.18h-11.385z" fill="#bec9e4" fill-rule="evenodd"/>
	<path d="m88.421 12.078v12.885h-11.385v13.529c-2.2268 3.0746-3.0786 7.3642-2.9629 11.508h11.59l10.469-36.51z" fill="#bec9e4" fill-rule="evenodd"/>
	<path d="m32.644 16.691h15.03v1.9428h-15.03v-1.9428" fill="#d3dbed" fill-rule="evenodd"/>
	<path d="m30.493 18.158-0.0254 31.842h49.074c0.01-9.7776 0.0254-20.219 0.0254-28.898h-15.18v10.74h-14.387v-13.684z" fill="#bec9e4" fill-rule="evenodd"/>
	<path d="m23.419 40.113-0.015599 9.8867h19.541c8e-3 -3.4727 0.0156-6.9472 0.0156-9.8867z" fill="#d3dbed" fill-rule="evenodd"/>
	<path d="m1.4344 45h85.663l-1.4337 5h-85.663z" fill="#254aa5"/>
	<path d="m84.584 22.516c-3.0213 1e-3 -6.1836 0.6979-8.5703 1.4375-2.116 2.3563-5.8315 4.1963-10.41 5.0469-3.0933-0.0319-8.2893 0.61714-11.945 1.1973-3.6547 0.58547-5.1696 1.1166-6.8789 2.3594-2.364 1.7156-2.5771 4.3324-2.5801 6.5547l8e-3 1.4863c3e-3 0.53176 0.36033 0.99622 0.875 1.1348 2.1347 0.57344 5.0789 0.44532 9.6856 0.44532h0.0215c0.84603 1.7533 2.62 2.9729 4.6953 2.9785 2.0746 9e-3 3.8538-1.1981 4.7109-2.9414 7.8854-4e-3 15.771-8e-3 23.656-0.0117l5.4961-19.168c-2.4627-0.38622-5.3356-0.59724-8.7637-0.51953z" fill="#254aa5" fill-rule="evenodd"/>
	<path d="m46.491 35.623c0.136 0.31613 0.66-0.11294 1.788-0.1572 1.3707-0.048 3.168-0.0677 4.3653-0.888 1.036-0.9412 1.46-1.9948 1.46-1.9948-0.54933 0.0333-1.8587 0.21613-3.9853 0.31346-1.8187 0.0865-4.088 1.1683-3.628 2.7265" fill="#3a5cae" fill-rule="evenodd"/>
	<path d="m76.168 23.932c-0.059-4e-3 -0.1118 3e-3 -0.1543 0.0215-1.4453 0.54013-3.2464 1.2762-5.0918 2.2324-2.132 1.1079-4.3424 2.5316-5.3184 2.8144 0.412 0.22387 1.9776 0.18848 3.7109 0.25195 0.764 0.0281 0.92655-0.1171 1.6719-0.43164 1.3613-0.56933 4.7517-2.7936 6.4023-4.0176-0.063-0.32538-0.80768-0.84504-1.2207-0.87109zm10.24 0.42578c-2.828-0.0119-3.7996 4e-3 -5.377 0.24414-1.2188 0.1863-3.3117 1.5253-5.1113 2.7305 0.5019 0.20991 0.42244 1.5955 0.28321 2.3066 0.0254 4e-3 0.0803 0.023 0.0957 0.0215 3.5253 0.0547 6.8383 0.0654 10.209 0.0586 0.0933-1.8453 0.19569-3.7357 0.31836-5.3613zm2.3535 0.0176c-0.028 1.9307-9e-3 2.7997-0.082 5.3242 0.91578-5e-3 1.8214-8e-3 2.7617-0.0137l1.4297-4.9863c-1.1115-0.15642-2.4502-0.28324-4.1094-0.32422z" fill="#3a5cae" fill-rule="evenodd"/>
	<path d="m34.317 8.1934c-1.412-0.0496-2.819 0.67827-3.082 2.5723-0.35066 2.5253 0.92773 2.9707 0.92773 2.9707l0.10742 0.25195c0.084 0.19867 0.21296 0.37953 0.37696 0.51953 0.23811 0.20398 0.47933 0.34905 0.71875 0.47071-0.0179 0.0197-0.0314 0.0499-0.0508 0.0684-0.17733 0.19467-0.28289 0.32337-0.46289 0.38867-0.192 0.0747-0.31638 0.0676-0.48438 0.0996-0.55733 0.0627-1.1781 0.0856-1.6074 0.21094-1.9547 0.55067-2.0388 4.7446-2.2441 6.4766-0.0493 0.408 0.17256 3.444 0.47656 5.416 0.028 0.29334 0.0463 0.44285 0.0703 0.71485 0.26933-0.0243 0.39692-0.0392 0.63282-0.0586-0.0556 0.23668-0.10337 0.47419-0.0898 0.86328 0.0173 0.51067 0.23232 1.08 0.45899 1.3613 0.0239 0.0297 0.062 0.0544 0.0898 0.084 0.0891 4.118 0.29826 10.109 0.34375 13.496h6e-3c-0.19829 0.25003-0.27344 0.60178-0.27344 0.99414h6.6582c0.10107-1.2835-1.33-0.61266-2.1465-1.1777l1.5352-14.393c-6e-3 -0.0152-0.0167-0.0264-0.0234-0.041 0.17477-0.0529 0.34452-0.0905 0.51172-0.14648l0.13867-5.9277c0.34215 1.1464 1.3955 1.1657 2.541 1.9688 0.192 0.11067 0.30587 0.16014 0.64453 0.24414 0.0558-0.13741 0.0688-0.19261 0.11329-0.30859 0.064 0.0648 0.14364 0.13743 0.16796 0.17969l0.20118 0.29492c0.71734 0.85734 1.1292 0.93006 1.4492 1.0527 0.34266 0.132 1.195 0.29206 1.291-0.33594 0.096-0.62667-0.81584-0.95431-1.0625-1.0703-0.24534-0.11333-0.68945-0.72265-0.68945-0.72265s0.55874 0.10668 0.9414 0.084c0.20664-0.0133 0.25836-0.29333 0.041-0.33203-0.288-0.052-0.63997-0.26353-0.94531-0.38086-0.33466-0.128-0.65614-0.0448-0.88281-0.0488-0.0121-2.1e-4 -0.037-0.0138-0.0508-0.0156 0.0336-0.10192 0.0652-0.21082 0.10547-0.31835-0.18533-0.16668-0.3723-0.30808-0.54297-0.44141-0.404-0.452-2.3836-1.283-2.4356-2.3457-0.17066-3.6453-0.36805-4.8269-1.5254-5.0469-0.188-0.0587-0.30912-0.10091-0.45312-0.12891-0.21867-0.0907-0.26293-0.24559-0.4336-0.43359-4e-3 -6e-3 -6e-3 -0.0152-0.01-0.0215 0.21887-0.0852 0.4168-0.22111 0.56445-0.41211 0.812-1.048 0.53144-3.3567 0.38477-4.1367-4e-3 -0.0218-6e-3 -0.0355-0.01-0.0566 0.40867 0.1112 0.74805 0.0566 0.74805 0.0566-1.368-1.0173 0.34952-1.5428-1.3691-2.2441-0.42967-0.17533-0.90043-0.27838-1.3711-0.29492zm0.043 20.547v8e-3c-1e-3 0-3e-3 -1e-5 -4e-3 0z" fill="#254aa5" fill-rule="evenodd"/>
	<path d="m52.18 7.9082s-0.13064 0.56251-0.60156 0.77344c-0.47027 0.2104-0.93192 1.0045-0.70899 1.5977 0.0331 0.088 0.10774 0.13925 0.20117 0.17578-0.0159 0.0646-0.0325 0.11589-0.0488 0.18555-0.1828 0.7828-0.56839 3.1015 0.20508 4.1973 0.23045 0.32574 0.59601 0.51725 0.99024 0.54883-0.0585 0.16638-0.1231 0.32988-0.20118 0.47656-0.15359 0.1119-0.24803 0.29096-0.29882 0.49414-7.9e-4 -7e-3 -6e-3 -7e-3 -6e-3 -0.0156-1.0277 0.73223-1.8184 4.579-1.752 5.709-0.98749 0.49988-2.5832 0.83746-3.4316 1.0996l0.12891 0.53125c-0.35252-0.067-1.101-0.26432-1.3164-0.26563-0.28267 0-0.46225 0.259-0.1289 0.375 0.34933 0.12 0.61132 0.20117 0.61132 0.20117s-0.87626 0.21211-1.0723 0.27344c-0.28533 0.092-0.89278 0.34538-1.0234 0.74805-0.10134 0.31333-0.0729 0.84986 0.61914 0.86719 0.84094 0.0222 1.9606-0.2291 2.6582-0.77735l0.14844 0.61133c1.0034-0.24167 1.7842-0.45569 2.4707-0.66211l-0.0352 3.5078c-0.60861-0.0114-1.2178-0.0228-1.8262-0.0352-0.14534 0-0.26944 0.12144-0.27344 0.27344-0.0173 0.54933-0.0341 1.0971-0.0527 1.6465l-0.0801 2.5c-0.0107 0.35067 0.25446 0.64177 0.5918 0.64844l1.9609 0.0371 0.33398 10.121c-0.41734 0.37187-1.7801-0.11617-1.8574 1.002v0.33984h5.0625v-0.33984c7e-3 -0.31813 0.0332-0.7461 0.0332-0.7461 0.33334-4.9021 1.2258-10.629 1.4805-14.668 0 0-8e-3 -7e-3 -8e-3 -8e-3 0.2282-0.03 0.46538-0.0535 0.6875-0.084l0.51563-7.2734c0.14796-1.5 0.26698-3.4809-0.041-4.3809-0.156-0.456-0.72135-1.5831-1.2774-2.0644-0.0533-0.0853-0.17328-0.23307-0.25195-0.42774-0.0415-0.13823-0.0984-0.26312-0.13086-0.41406 0.0358-0.026 0.0718-0.0405 0.10742-0.0684 0.1724-0.1344 0.3095-0.30853 0.4043-0.50586l0.0703-0.14649c0.1083 0.11819 0.23633 0.25391 0.23633 0.25391 2.0865-4.6281-0.66323-5.1049-1.8262-5.334-1.1631-0.22813-1.2676-0.97852-1.2676-0.97852z" fill="#254aa5" fill-rule="evenodd"/>
	<path d="m14.448 14.543-1.498 4.2637h1.6172v24.762h-0.58399v1.5254h2.5449v-1.5254h-0.58399v-10.713h8.623v10.713h-0.58399v1.5254h2.5449v-1.5254h-0.58399v-24.762h1.6172l-1.498-4.2637zm1.4961 4.2637h8.623v0.97851h-8.623zm0 11.768h8.623v1.4668h-8.623z" fill="#254aa5"/>
	<path d="m23.22 24.538 0.53584-2.1492h-2.1595zm-3.8671-2.1492h-1.2054l-0.29912 1.1998 3.3103 4.3818h1.2055l0.29905-1.1998zm-0.43757 5.5816-1.6237-2.1492-0.53584 2.1492z" fill="#eaedf6"/>
</svg>
