<svg version="1.1" viewBox="0 0 100 50" xmlns="http://www.w3.org/2000/svg">
	<path d="m14.337 0h85.663l-14.337 50h-85.663z" fill="#eaedf6"/>
	<path d="m1.4337 45h85.663l-1.4337 5h-85.663z" fill="#254aa5"/>
	<path d="m66.248 0c-2.2943 2.0452-3.3212 5.3243-2.6113 8.8047-0.24231 0.0492-0.47491 0.11479-0.69922 0.19141-2.0618 0.56938-3.5781 2.4545-3.5781 4.6973 0 1.7632 0.94004 3.3033 2.3418 4.1602-0.0443 0.23754-0.07781 0.47235-0.09961 0.70508-0.0932 0.4409-0.14453 0.8965-0.14453 1.3652 0 3.619 2.9336 6.5527 6.5527 6.5527 1.2552 0 2.4289-0.35297 3.4258-0.96484 1.7418 0.84796 3.6888 0.49206 5.043-0.41211 0.80846 1.4816 4.6395 7.3641 4.6758 7.4004 0.50903 0.50967 0.57523 0.7202-0.40234 12.5h6.3438l0.93164-3.248c-0.13402-4.0222-0.4043-12.2-0.4043-13.125 0-1.0378 2.8643-4.546 3.5293-5.3711 0.49366 0.43392 1.1551 0.6938 1.9785 0.69531l6.8691-23.951zm14.859 17.979c0.39263 0.33373 0.9017 0.59784 1.4688 0.79688l-0.17969 2.7617-1.4316-1.5605c0.21465-0.59097 0.28058-1.2573 0.14258-1.998zm7.2168 0.4375c0.36571 0.61636 0.94582 1.0901 1.6387 1.3184-0.0859 0.63883-4e-3 1.3778 0.24219 2.0605-0.67851 1.0921-1.2883 1.6721-2.6914 3.4336l0.01563-6.4277c0.2865-0.10653 0.55357-0.23346 0.79492-0.38476zm-7.9824 2.6133c2.2042 3.1102 2.4089 0.51794 1.5059 9.3516-1.5836-1.8751-3.4774-4.8153-4.2578-6.3223 0.37319-0.50827 0.59375-1.0763 0.59375-1.6562 0.90903-0.29934 1.6388-0.77079 2.1582-1.373z" fill="#d3dbed"/>
	<path d="m68.475 18.209c-0.38948-6e-3 -0.65625 0.22656-0.65625 0.22656-0.78182 0.8505 0.0605 1.4473 0.0605 1.4473l0.28711 0.19336c7e-3 -0.0132 0.027-0.0294 0.0352-0.043-0.33698 0.79362-0.0663 1.7266 0.2207 2.1504 0 0 0.0491-0.055 0.0918-0.10743 0.0722 0.23115 0.14843 0.39649 0.14843 0.39649l0.0762 0.16406c0.0619 0.12947 0.15131 0.24559 0.26367 0.33399 0.0174 0.0138 0.0353 0.0201 0.0527 0.0332-0.056 0.17504-0.12375 0.36966-0.18945 0.52734-0.024 2e-3 -0.0533-8.1e-4 -0.0762 2e-3 -0.0498 0.18352-0.0995 0.31221-0.17578 0.49218-0.88116 0.67827 0.1278 5.161-0.6543 7.0215-0.69481 1.3976-0.22296 1.9434 0.16601 3.5508-0.11793 0.0204-0.23555 0.0421-0.35351 0.0625-0.13601 0.0262-0.27613 0.15564-0.20703 0.25586l0.0234 0.0352 0.58398 3.2402c0.0417 0.23325 0.0843 0.37608 0.29297 0.3789-4e-3 0.18571 7e-3 0.32834-2e-3 0.52735 0.1216 5e-3 0.2808 9.2e-4 0.41406 4e-3 -9e-3 5e-3 -0.0251 5e-3 -0.0332 0.01-0.1769 0.58738-0.84306 3.416-1.0508 4.418-0.24601 0.2149-0.37967 0.38197-0.5 0.78711l0.29493 0.12695c0.12839-0.15833 0.18623-0.18881 0.29101-0.28906 0.0903 0.18492-0.01 0.34414-2e-3 0.39844l1.9609 0.44726c0.16863-0.24523-0.0199-0.49688-0.26758-0.66015l-0.96094-0.63868c0.45446-1.0599 1.031-2.4652 1.3945-3.4941 0.21734 1.1375 0.50746 2.6996 0.83984 3.957-0.0561 0.30528-0.0382 0.50067-0.0332 0.83594h0.41016c3e-3 -0.15643 6e-3 -0.29917 0.0879-0.41992 0.13054 0.071 0.29786 0.36672 0.31836 0.41992h1.752c0.0179-0.37893-0.32797-0.57685-0.60742-0.68164l-1.1797-0.32617c-0.18672-2.9984-0.17406-4.2252-0.22265-4.9629-9e-3 -2e-3 -0.0315-2e-3 -0.041-4e-3 0.0539-6e-3 0.12872-6e-3 0.17969-0.0117-6e-3 -0.46393 2e-3 -0.55907 0-0.9414l1.959-0.33203c0.31736-0.0566 0.33519-0.21993 0.28125-0.49219l-0.6582-3.2949-0.0176 2e-3c-0.0231-0.11473-0.15513-0.19037-0.29102-0.16797-0.4266 0.0747-0.85291 0.14803-1.2793 0.22266-2e-3 -0.61501-0.0124-1.2206-0.0586-2.0274 0.0151-1.4396 0.21196-2.3832 0.39454-3.1035 0.0352 0.0123 0.76301 1.1405 1.2344 0.96094l2.0723-0.79297-0.0566-0.23633c0.17893 0.0976 0.39267 0.20084 0.64648 0.1543 0.0257 0.18944 0.0643 0.49798 0.0898 0.71289h1.1836l0.10547-0.71289 0.20898-1.4062c0.0275-0.18099 0.0546-0.36092 0.082-0.53907h0.22266c0-0.16932-0.13537-0.30468-0.30469-0.30468v-0.0293c0-0.11095-0.0911-0.20313-0.20117-0.20313h-1.3301c-0.1127 0-0.20508 0.0922-0.20508 0.20313v0.0293c-0.1667 0-0.30469 0.13536-0.30469 0.30468h0.19336c0.013 0.13287 0.0489 0.40766 0.0645 0.53907 7e-3 0.0535 0.0167 0.1349 0.0254 0.21484-0.11127 0.022-0.21954 0.0648-0.34766 0.14844-0.0865 0.0563-0.19903 0.0988-0.31055 0.13672l-0.0586-0.2461c-0.4302 0.14094-1.5702 0.60822-1.6367 0.54102l-1.0488-1.0137h-2e-3c-2e-3 -0.10569-0.0158-0.20661-0.0488-0.30469-0.27187-0.81521-0.93591-1.4576-1.5742-2.6035-0.0745-0.20995-0.14761-0.2902-0.19921-0.5332-0.0488-0.10933-0.0704-0.2576-0.0664-0.42383 0.0594 5e-3 0.12347 0.0127 0.17578 0.0137 0.28898 5e-3 0.56338-0.1311 0.73047-0.36914 0.33968-0.48299 0.44453-1.304 0.44726-1.957 2e-3 6e-3 7e-3 0.01 0.01 0.0156 0 0 0.65822-0.21902 0.37109-0.92188-0.27156-0.66477-1.1369-1.7923-2.5898-1.2793 4e-3 -3e-3 0.0488-0.0351 0.0488-0.0351l-0.1875-0.36133c-0.29018-0.27779-0.56905-0.36737-0.80274-0.37109z" fill="#bec9e4"/>
	<path d="m26.422 6.1104c5.1841-1.1247 10.368-1.1247 15.553 0v1.2032c-5.1846 0.78993-10.369 0.78993-15.553 0v-1.2032" fill="#a8b7db"/>
	<path d="m27.607 2.1873h13.182l1.1857 3.9231h-15.553l1.1853-3.9231" fill="#7f95ca"/>
	<path d="m41.974 7.3136v37.686h-15.553v-37.686h15.553" fill="#bec9e4"/>
	<path d="m13.906 16.592c-1.4525 0-2.9049 0.04405-4.3574 0.10938l-3.5527 12.391c7.2722 0.39861 14.544 0.25546 21.816-0.44531v-11.057c-4.6355-0.66535-9.2708-0.99805-13.906-0.99805z" fill="#a8b7db"/>
	<path d="m35.436 29.232h-2.476v-4.2188c0-1.999 2.476-1.999 2.476 0v4.2188" fill="#d3dbed"/>
	<path d="m39.987 29.232h-2.4756v-4.2188c0-1.999 2.4756-1.999 2.4756 0v4.2188" fill="#d3dbed"/>
	<path d="m60.22 18.176c-0.51048 0.0369-0.96763 0.25397-1.1465 0.37109-0.35771 0.23542-0.33203 0.49219-0.33203 0.49219-0.0987-0.1477-0.25977-0.0566-0.25977-0.0566-0.67506 0.34799-0.1897 1.6415-0.11328 1.834 0 0-0.24478-0.1183-0.31836 0.10157-0.0741 0.21938-3e-3 0.90367 0.375 0.77148 0.017 0.30228 0.0633 0.60648 0.20508 0.8125 0.10833 0.15732 0.2873 0.32135 0.48047 0.47266-0.0361 0.0618-0.0815 0.12371-0.14453 0.18554-0.156 0.15377-0.30871 0.26421-0.47852 0.37696 0.0508 0.16367 0.10181 0.30037 0.15039 0.44726h-0.0254c-0.0406-0.13831-0.0875-0.34541-0.125-0.44726-0.23649 0.1215-1.1482 0.19903-1.7129 0.32812-0.77449 0.1875-2.4063 2.6106-3.3047 3.7266-0.50259 0.67583-0.18932 1.1535 0.0449 1.3867 0.82815 0.6318 1.7637 1.4014 2.5918 2.0332l0.0684-0.25c0.0741 0.14959 0.56796 0.54921 0.65039 0.58984 0.0761 0.038 0.28071 0.23357 0.47071 0.0977 0.0303 0.64538 0.0595 1.2904 0.0898 1.9355h0.16406c0.11803 3.6269 0.23743 7.2579 0.35547 10.887-0.19443 0.1787-0.32422 0.43356-0.32422 0.72852h1.8203c0-0.26764-0.10042-0.50939-0.26367-0.68555h8e-3l0.74804-10.195 0.94922 10.195h0.0273c-0.1639 0.17616-0.26562 0.41791-0.26562 0.68555h1.8223c0-0.28225-0.11484-0.531-0.29493-0.70899v-10.906h0.10743l0.18554-5.7656 0.26172 5.5391c0.13106-0.0121 0.26308-0.0232 0.39453-0.0352-5e-3 0.0129-0.11523 0.27099-0.11523 0.38282v0.38281c-0.20432 0.44041-0.19036 0.62866-0.10156 0.74219 0.0647 0.0834 0.14941-0.0113 0.21289-0.11719l0.0117 0.86133h-0.24218l-0.13477 0.13476-0.0156 0.25781-0.25391 3.9043h1.8515l-0.0937-1.5898 0.0879-4e-3c0.0992-6e-3 0.17778-0.0912 0.17578-0.1914l-0.0391-0.75977-0.0781-0.0703-0.20508 0.01-0.0898-1.5566-0.13477-0.13476h-0.27148c-3e-3 -0.18353-5e-3 -0.36821-8e-3 -0.55274 0.12152-0.0549 0.24938-0.11878 0.35938-0.15429 0.27411-0.0884 0.19506-0.35434 0.13086-0.53125-0.0632-0.177-0.15077-0.70705-0.22657-0.89649-0.0138-0.0345-0.0183-0.11414-0.0234-0.18945 0.11815-0.0109 0.23538-0.0221 0.35351-0.0332-0.20704-3.2786 0.21748-8.32-1.4258-9.1113-0.43546-0.12034-1.1154-0.2215-1.3789-0.36914-0.01 0.0325-0.0919 0.36467-0.11329 0.44726h-0.0371c0.0486-0.14699 0.0996-0.28347 0.1504-0.44726-0.16942-0.11275-0.31665-0.22319-0.47266-0.37696-0.0391-0.0516-0.0615-0.13074-0.0918-0.19922 0.26964-0.21414 0.51044-0.44788 0.58008-0.56445 0.0636-0.10718 0.0948-0.39818 0.11133-0.70312 0.34313 0.0724 0.40932-0.56391 0.33789-0.77539-0.0741-0.21987-0.31641-0.10157-0.31641-0.10157l-0.0137 0.0137c-5e-4 -9e-3 5.2e-4 -0.0475 0-0.0547 1.8e-4 3e-3 4e-3 0.041 4e-3 0.041 0.32076-0.3334 0.46819-1.4196 0.12304-1.9375-0.39488-0.59841-0.95826-0.74-1.4688-0.70312zm-3.1621 8.1641c0.0542 1.185 0.11061 2.3707 0.16602 3.5566-0.12084 0.0269-0.21596 0.0464-0.26758 0.0527-0.0791-0.0165-0.22709-0.0572-0.24023-0.0586l0.13476-0.125c-0.45188-0.36071-1.0189-0.80442-1.4707-1.1641-0.32802-0.29082-0.21361-0.45193-0.0762-0.57227 0.58845-0.55705 1.1623-1.1329 1.7539-1.6894z" fill="#bec9e4" fill-rule="evenodd"/>
	<path d="m35.436 36.904h-2.476v-4.2191c0-1.9998 2.476-1.9998 2.476 0v4.2191" fill="#d3dbed"/>
	<path d="m39.987 36.904h-2.4756v-4.2191c0-1.9998 2.4756-1.9998 2.4756 0v4.2191" fill="#d3dbed"/>
	<path d="m35.436 44.578h-2.476v-4.2187c0-2.0002 2.476-2.0002 2.476 0v4.2187" fill="#d3dbed"/>
	<path d="m39.987 44.578h-2.4756v-4.2187c0-2.0002 2.4756-2.0002 2.4756 0v4.2187" fill="#d3dbed"/>
	<path d="m28.409 29.232h2.476v-4.2188c0-1.999-2.476-1.999-2.476 0v4.2188" fill="#d3dbed"/>
	<path d="m35.436 21.592h-2.476v-4.2192c0-1.999 2.476-1.999 2.476 0v4.2192" fill="#d3dbed"/>
	<path d="m39.987 21.592h-2.4756v-4.2192c0-1.999 2.4756-1.999 2.4756 0v4.2192" fill="#d3dbed"/>
	<path d="m28.409 21.592h2.476v-4.2192c0-1.999-2.476-1.999-2.476 0v4.2192" fill="#d3dbed"/>
	<path d="m35.436 14.208h-2.476v-4.2199c0-1.9986 2.476-1.9986 2.476 0v4.2199" fill="#d3dbed"/>
	<path d="m39.987 14.208h-2.4756v-4.2199c0-1.9986 2.4756-1.9986 2.4756 0v4.2199" fill="#d3dbed"/>
	<path d="m28.409 14.208h2.476v-4.2199c0-1.9986-2.476-1.9986-2.476 0v4.2199" fill="#d3dbed"/>
	<path d="m28.409 36.904h2.476v-4.2191c0-1.9998-2.476-1.9998-2.476 0v4.2191" fill="#d3dbed"/>
	<path d="m28.409 44.578h2.476v-4.2187c0-2.0002-2.476-2.0002-2.476 0v4.2187" fill="#d3dbed"/>
	<path d="m10.467 13.498-1.1738 4.0918h18.52l-1.2871-4.0918z" fill="#7f95ca"/>
	<path d="m22.457 21.015h3.7948v5.3906h-3.7948v-5.3906" fill="#bec9e4"/>
	<path d="m15.588 21.015h3.7948v5.3906h-3.7948v-5.3906" fill="#bec9e4"/>
	<path d="m12.225 21.015h-3.7948v5.3906h3.7948v-5.3906" fill="#bec9e4"/>
	<path d="m5.0098 32.529-3.5762 12.471h26.379v-12.471z" fill="#a8b7db"/>
	<path d="m17.149 45h7.3032v-6.0668c0-3.6926-7.3032-3.6926-7.3032 0v6.0668" fill="#bec9e4"/>
	<path d="m6.6445 36.164c-1.1376 0-2.2714 0.35216-2.9785 1.0508l-0.71875 2.5078v5.2773h7.3965v-6.0664c0-1.8463-1.8498-2.7695-3.6992-2.7695z" fill="#bec9e4"/>
	<path d="m12.338 22.352c-1.6301 0.0282-3.1156 0.12841-4.4902 0.2793l-5.5664 19.412c10.952 0.0049 21.904 0.01075 32.855 0.01563 0.85709 1.7433 2.6363 2.9504 4.7109 2.9414 2.0753-6e-3 3.8493-1.2253 4.6953-2.9785h0.02148c4.6067 0 7.5509 0.12813 9.6855-0.44531 0.51467-0.13854 0.872-0.60301 0.875-1.1348l0.0078-1.4863c-3e-3 -2.2223-0.21609-4.8391-2.5801-6.5547-1.7093-1.2428-3.2242-1.7739-6.8789-2.3594-3.656-0.58013-8.852-1.2292-11.945-1.1973-4.5787-0.85053-8.2942-2.6906-10.41-5.0469-2.3867-0.7396-5.549-1.4365-8.5703-1.4375-0.83494-0.01892-1.6381-0.02117-2.4102-0.0078z" fill="#254aa5" fill-rule="evenodd"/>
	<path d="m52.842 35.467c-0.136 0.31613-0.66-0.11294-1.788-0.1572-1.3707-0.048-3.168-0.0677-4.3653-0.888-1.036-0.9412-1.46-1.9948-1.46-1.9948 0.54933 0.0333 1.8587 0.21613 3.9853 0.31346 1.8187 0.0865 4.088 1.1683 3.628 2.7265" fill="#516eb7" fill-rule="evenodd"/>
	<path d="m23.164 23.775c-0.41302 0.026-1.1577 0.54571-1.2207 0.87109 1.6507 1.224 5.041 3.4482 6.4023 4.0176 0.74533 0.31454 0.90788 0.45974 1.6719 0.43164 1.7333-0.0635 3.2989-0.0281 3.7109-0.25195-0.976-0.2828-3.1864-1.7066-5.3184-2.8145-1.8453-0.95626-3.6465-1.6923-5.0918-2.2324-0.0425-0.0185-0.0953-0.02548-0.1543-0.02148zm-10.658 0.42578c0.12267 1.6256 0.22506 3.516 0.31836 5.3613 0.31763 6.4e-4 0.63434-2e-3 0.95117-2e-3 0.18563-0.39535 0.45997-0.89048 0.77148-1.1602 0.0395-0.0633 0.12715-0.17199 0.18555-0.31641 0.0309-0.10255 0.07356-0.19661 0.09766-0.30859-0.0266-0.0193-0.05368-0.02813-0.08008-0.04883-0.12789-0.0997-0.22853-0.23056-0.29883-0.37695l-0.05273-0.10742c-0.0803 0.0877-0.17578 0.1875-0.17578 0.1875-0.78423-1.7395-0.645-2.6837-0.20703-3.2188-0.39061-6.2e-4 -0.60297-0.01137-1.0918-0.0098zm-1.9355 0.01758c-1.2402 0.03063-2.3094 0.10879-3.2383 0.21094l-1.459 5.0898c1.615 0.0083 3.1945 0.01452 4.7793 0.02344-0.073-2.5245-0.05403-3.3935-0.08203-5.3242zm6.9375 0.125c-6e-3 0.0541 2e-3 0.11108-0.01758 0.16211-0.0246 0.0653-0.07911 0.10376-0.14844 0.13086 0.0118 0.0479 0.02306 0.085 0.03516 0.13672 0.13561 0.58073 0.42147 2.3024-0.15234 3.1152-0.17097 0.24166-0.4419 0.38285-0.73438 0.40625 0.0434 0.12343 0.09249 0.2447 0.15039 0.35352 0.11394 0.083 0.183 0.21646 0.2207 0.36719 0-5e-3 0.0039-5e-3 0.0039-0.01172 0.146 0.10401 0.28419 0.30966 0.41406 0.55274 1.8839-8e-3 3.7845-0.02223 5.7539-0.05273 0.0154 1e-3 0.0703-0.01748 0.0957-0.02148-0.13922-0.71112-0.2187-2.0967 0.2832-2.3066-1.7996-1.2052-3.8925-2.5442-5.1113-2.7305-0.2824-0.043-0.53527-0.0718-0.79297-0.10156z" fill="#516eb7" fill-rule="evenodd"/>
	<path d="m85.143 12.252v1.2969h-5.4863l-1.3125 1.1348 1.1465 1.3633h5.6523v0.94336h-5.4863l-1.3125 1.1348 1.1465 1.3613h5.6523v0.95312h-5.4863l-1.3125 1.1074 1.1465 1.332h5.6523v19.074h-0.85352l-0.63086 3.0469h3.4375l0.4375-1.5254-0.31445-1.5215h-0.85352v-29.701z" fill="#254aa5"/>
</svg>
