<svg version="1.1" viewBox="0 0 100 50" xmlns="http://www.w3.org/2000/svg">
	<path d="m14.337 1e-7h85.663l-14.337 50h-85.663z" fill="#eaedf6"/>
	<path d="m14.566 15.182-4.8359 0.88477-9.7305 33.934h28.918c0.0111-2.8529-0.85782-5.8392-2.9668-8.752v-18.18h-11.385z" fill="#bec9e4" fill-rule="evenodd"/>
	<path d="m88.42 12.078v12.885h-11.385v13.529c-2.2268 3.0746-3.0786 7.3642-2.9629 11.508h11.59l10.469-36.51z" fill="#d3dbed" fill-rule="evenodd"/>
	<path d="m32.644 16.691h15.03v1.9428h-15.03v-1.9428" fill="#d3dbed" fill-rule="evenodd"/>
	<path d="m30.492 18.158-0.0254 31.842h49.074c0.01-9.7776 0.0254-20.219 0.0254-28.898h-15.18v10.74h-14.387v-13.684z" fill="#bec9e4" fill-rule="evenodd"/>
	<path d="m23.418 40.113-0.0156 9.8867h19.541c8e-3 -3.4727 0.0156-6.9472 0.0156-9.8867z" fill="#d3dbed" fill-rule="evenodd"/>
	<path d="m1.433 45-1.4336 5h85.662l1.4336-5z" fill="#254aa5"/>
	<path d="m14.447 14.543-1.498 4.2637h1.6172v24.762h-0.58399v1.5254h2.5449v-1.5254h-0.58399v-10.713h8.623v10.713h-0.58399v1.5254h2.5449v-1.5254h-0.58399v-24.762h1.6172l-1.498-4.2637zm1.4961 4.2637h8.623v0.97851h-8.623zm0 11.768h8.623v1.4668h-8.623z" fill="#254aa5"/>
	<path d="m23.218 24.538 0.53584-2.1492h-2.1595zm-3.8671-2.1492h-1.2054l-0.29912 1.1998 3.3103 4.3818h1.2055l0.29905-1.1998zm-0.43757 5.5816-1.6237-2.1492-0.53584 2.1492z" fill="#eaedf6"/>
	<path d="m63.429 22.633c-17.717-0.4016-20.89 6.8075-26.59 7.0059-3.0787 0.10774-2.7107 1.2099-2.9707 2.4766-0.16488 0.93174-0.25588 2.1897-0.17188 3.3965-0.24266 0.3452-0.47581 0.73794-0.50781 0.9082-0.0586 0.2896-0.04964 1.4884-0.05664 2.1738-0.0933 1.2745-0.0634 2.1913 0.66992 2.5059 0.72667 0.31511 2.2778 1.3008 6.7578 1.3008 0.0577 0 0.10696-0.0039 0.16406-0.0039 0.86312 1.7265 2.6304 2.921 4.6914 2.916 2.0828-4e-3 3.8627-1.234 4.7051-2.9961 11.232 5e-3 22.465 0.01062 33.697 0.01563 0.64828 1.3186 1.8256 2.3274 3.2578 2.7383l4.3535-15.184c-3.1621-0.42885-6.6868-0.79359-9.0195-0.76953-4.5787-0.85053-8.2942-2.6906-10.41-5.0469-2.3867-0.7396-5.549-1.4365-8.5703-1.4375z" fill="#254aa5" fill-rule="evenodd"/>
	<path d="m71.846 24.049c0.059-4e-3 0.11179 3e-3 0.15429 0.0215 1.4453 0.54013 3.2465 1.2762 5.0918 2.2324 2.132 1.1079 4.3424 2.5316 5.3184 2.8144-0.412 0.22387-1.9776 0.18849-3.7109 0.25196-0.764 0.0281-0.92654-0.1171-1.6719-0.43164-1.3613-0.56933-4.7517-2.7936-6.4024-4.0176 0.063-0.32538 0.80769-0.84505 1.2207-0.8711zm-10.24 0.42578c2.828-0.0119 3.7996 4e-3 5.377 0.24414 1.2188 0.1863 3.3117 1.5253 5.1113 2.7305-0.50189 0.20991-0.42242 1.5955-0.2832 2.3066-0.0254 4e-3 -0.0803 0.023-0.0957 0.0215-3.5253 0.0547-6.8383 0.0654-10.209 0.0586-0.0933-1.8453-0.19569-3.7357-0.31836-5.3613zm-2.3535 0.0176c0.028 1.9307 9e-3 2.7997 0.082 5.3242-2.8614-0.0161-5.9396-0.0346-8.6289-0.043 0.13066-2.1129 0.4375-4.0039 0.4375-4.0039 0.65466-0.23694 2.9867-1.1508 8.1094-1.2773zm-9.1973 1.5781c-0.10134 1.1256-0.22005 1.6546-0.38672 3.6973v2e-3c-0.94 1e-3 -1.8692 3e-3 -2.7852 4e-3 -1.092-0.38187-0.89905-1.2523-0.62305-1.4668 0.80134-0.84853 2.4549-1.7041 3.7949-2.2363z" fill="#3a5cae" fill-rule="evenodd"/>
	<path d="m31.581 8.5684c-0.5049-5.2e-4 -1.0819 0.10037-1.6328 0.41992-1.4693 0.85147-2.0677 1.752-2.1582 2.916-0.0907 1.1641 0.3973 2.8601 2.3457 3.0664 0 0 0.0897-0.21039 0.10937-0.25 0.0628 0.0589 0.12439 0.11977 0.19922 0.16407 0.10535 0.0627 0.19883 0.0978 0.29688 0.14453-0.0344 0.23434-0.0619 0.47585-0.11133 0.64062-0.39373 0.20573-0.83027 0.98369-0.82227 1.5352 0.0235 1.4495 0.11868 3.2155 0.14258 4.8379 0.0931 0.81114 0.83412 1.1434 1.7656 1.2656-0.0922 0.0377-0.18746 0.0721-0.27539 0.11524-1.4385 1.224-0.84137 7.9959-0.79297 10.344h-2e-3l0.01 0.79687c0.16506 0.0475 0.3313 0.0718 0.49805 0.11133-5e-3 9.3e-4 -0.0133 1e-3 -0.0176 2e-3 -1.3869 3.261-0.70799 2.068-2.7227 6.5586l-0.38085 0.51363c-0.16667-0.17082-0.88122 0.82292-0.72656 0.97656l3.5469 2.3672c0.26253-0.45312 0.60758-0.44831-0.44922-1.666-0.46454-0.50781-1.0215-1.248-1.0215-1.248s0.82436-1.6774 2.7344-5.1465c0.0311 1.8445 0.0182 3.2402-0.0547 6.2246l-0.19531 0.81641c1e-3 3e-3 3e-3 5e-3 4e-3 8e-3 -0.1734 0.11817-0.11517 0.97189 0.084 1.0117h4.377c-0.0401-0.51978 0.26571-1.0234-1.9707-1.0937-9e-3 3e-3 -0.0185 3e-3 -0.0273 6e-3 -0.64024-0.25029-1.125-0.38086-1.125-0.38086-0.12291-0.13078 0.47311-3.2851 1.1484-8.5352 0.2174 6e-3 0.42186 0.0106 0.53711 0.01l0.15429-0.8125 0.0801-0.55078c0.0557-0.37454 0.11064-0.72959 0.16211-1.0723 0.21466-1.4147 0.40578-2.6432 0.53711-3.5176 0.0629-0.3948 0.11442-0.75354 0.16602-1.0801 0.23013-1.6973 0.34685-2.6622 0.27539-3.3008-0.0515-0.35358-0.17421-0.62604-0.35156-0.94727 0.26023-0.0347 0.34564-0.0347 0.58203-0.0762 0.21294-0.0391 0.7842-0.19203 0.98047-0.25976 0.59227-0.20254 0.7539-0.23242 0.7539-0.23242 0.65467-0.0323 0.87695-0.24024 0.87695-0.24024 0.89-0.5068 1.0799-1.2654 1.0664-1.6523-1e-3 -0.0363-0.0155-0.0468-0.0215-0.0742l1.9277-1.9805v-0.24219l-0.30273-0.29101-0.24219 2e-3 -2.7773 2.8535-0.0742-0.0469c-0.1808 0.0855-0.39533 0.1813-0.5 0.39063-0.0762 0.15283-0.20884 0.32773-0.28516 0.43359l-0.1875 0.0644-0.58593-0.0332-1.4043-0.0469c0.3252-1.6198 0.23859-3.1596 0.0957-3.707-0.21093-0.70933-1.7604-1.549-3.2188-2.873-0.0234-0.0772-0.0505-0.20107-0.0742-0.27343 0.54541 0.0507 0.98609-0.37163 1.2168-0.69532 0.57456-0.80825 0.53443-2.0495 0.54492-2.9648 0.31064 0.30674 0.68554 0.24023 0.68554 0.24023-0.30147-0.30787-0.274-1.2704-0.63867-2.4277-0.36453-1.1589-1.2695-0.83789-1.2695-0.83789s-0.64287-0.27843-1.4844-0.2793z" fill="#254aa5"/>
	<path d="m54.408 7.9532c0.21099 3e-3 0.43594 0.041 0.67969 0.125 1.95 0.67239 2.3534 2.0852 1.7148 3.5644-0.63907 1.4791-0.16797 1.8496-0.16797 1.8496-0.43693 0.30253-1.041 0-1.041 0s-0.0768 0.0593-0.17578 0.13086c9e-3 0.24163 0.0298 0.55327 0.1582 0.92969 0.364 0.12293 0.6386 0.27229 1.375 0.41602 0.51414 0.16453 0.87155 0.73014 0.82422 1.2441-0.10787 1.0588 0.036 8.9384 0.45898 11.557-0.0406 0.0137-0.10772 0.0225-0.15429 0.0352-0.65487 3.3589-1.1797 6.4883-1.1797 6.4883l0.0117 0.0156-0.50386 4.0176s-0.28721 2.9894-0.55078 5.5234h-4e-3c0.0167 0.45695-0.0139 1.0078-0.17382 1.2441h-4.4004c-0.16662-1.0227 0.80238-1.3848 1.6582-1.6992 0.29817-3.8107 0.47369-6.116 0.66797-8.1875-0.58766-0.81153-0.5608-1.6138-1.1113-7.0859-0.0414 4.2e-4 -0.21558 1e-3 -0.24414 2e-3 0.017-1.0397-0.017-4.0622-0.0859-5.8418-0.01 0.037-1.9328 1.825-2.3398 2.3516l-0.26953-0.27735c-0.16666 0.14945-0.35119 0.3221-0.46094 0.40235-0.27653 0.20213-0.58149 0.35629-0.91016 0.47656-0.1328 0.0489-0.50573 0.16014-0.61719 0.67773-0.13854 0.64227-0.37522 0.66681-0.48828 0.4668-0.16094-0.28534-0.0356-0.94011 0.0664-1.3848 0.12613-0.55 0.95242-0.74465 1.377-0.90039 0.12554-0.0463 0.2772-0.18842 0.42969-0.35547l-0.1875-0.19139s1.146-1.2152 2.0371-2.2227c-2.3306-0.23662-4.9572-0.63126-5.5078-0.61719l0.0332-0.35156c-0.44064-0.0389-0.75785 0.19306-1.1523 0.375-0.48861 0.22479-0.74419-0.13866-1.1035-0.98047-0.3604-0.84222 0.2332-0.79373 0.62109-1.0606 0.31736-0.21825 0.12392-0.40472 0.0742-0.62109-0.12836-0.55172 0.0652-0.67416 0.19922-0.69337 0.13399-0.0192 0.55264 1.0178 0.64844 1.1738 0.23821 0.38668 0.50078 0.51988 0.82812 0.55858l8e-3 -0.0879 4.7226-6e-3c0.87557-9e-3 1.0912 0.0542 1.3828-0.0723 3e-3 -0.0994 5.7e-4 -0.0706 6e-3 -0.18554 0.0677-1.4651 0.0557-3.4261 1.1562-3.7969 0.13026-0.0365 0.79833-0.0933 0.95313-0.16211 0.054-0.11609 0.0879-0.26581 0.11328-0.42383-0.27442 0.0684-0.5651 0.12008-0.87891 0.12695 0 0-0.60516 0.13517-0.77343-0.5039-0.16826-0.63853-0.62282-2.7073-0.33789-3.7949l0.0215-4e-3c-0.90084-0.34375-0.66016-0.90819-0.66016-0.90819 1.0296 0.32409 1.777-1.3602 3.2539-1.336z" fill="#254aa5" fill-rule="evenodd"/>
</svg>
