<?xml version="1.0" encoding="utf-8"?>

<!DOCTYPE svg PUBLIC "-//W3C//DTD SVG 1.1//EN" "http://www.w3.org/Graphics/SVG/1.1/DTD/svg11.dtd">
<svg version="1.1" id="Layer_1" xmlns="http://www.w3.org/2000/svg" xmlns:xlink="http://www.w3.org/1999/xlink" x="0px" y="0px"
	 viewBox="0 0 2560 1600" enable-background="new 0 0 2560 1600" xml:space="preserve">
<pattern  width="100" height="100" patternUnits="userSpaceOnUse" id="New_Pattern" viewBox="125 -485 250 360" overflow="visible">
	<g>
		<rect x="125" y="-485" fill="none" width="100" height="100"/>
		<path d="M374.615-211.608c-1.986-0.005-4.013,0.914-5.441,3.09c-1.815,2.75-1.036,6.905,2.089,8.899
			c0.977,0.65,2.154,0.982,3.352,0.995c0.129-0.001,0.257-0.006,0.385-0.015c0.128,0.009,0.256,0.014,0.385,0.015
			c1.198-0.013,2.376-0.345,3.352-0.995c3.125-1.994,3.904-6.15,2.089-8.899c-1.428-2.176-3.455-3.095-5.441-3.09
			c-0.128,0-0.256,0.003-0.385,0.011C374.872-211.605,374.743-211.609,374.615-211.608z M461.608-125.385
			c0.005-1.986-0.914-4.013-3.09-5.441c-2.75-1.815-6.905-1.036-8.899,2.089c-0.65,0.977-0.982,2.154-0.995,3.352
			c0.001,0.129,0.006,0.257,0.015,0.385c-0.009,0.128-0.014,0.256-0.015,0.385c0.013,1.198,0.345,2.376,0.995,3.352
			c1.994,3.125,6.15,3.904,8.899,2.089c2.176-1.428,3.095-3.455,3.09-5.441c0-0.128-0.003-0.256-0.011-0.385
			C461.605-125.128,461.609-125.257,461.608-125.385z M375.385-38.392c1.986,0.005,4.013-0.914,5.441-3.09
			c1.815-2.75,1.036-6.905-2.089-8.899c-0.977-0.65-2.154-0.982-3.352-0.995c-0.129,0.001-0.257,0.006-0.385,0.015
			c-0.128-0.009-0.256-0.014-0.385-0.015c-1.198,0.013-2.376,0.345-3.352,0.995c-3.125,1.994-3.904,6.15-2.089,8.899
			c1.428,2.176,3.455,3.095,5.441,3.09c0.128,0,0.256-0.003,0.385-0.011C375.128-38.395,375.257-38.391,375.385-38.392z
			 M288.392-124.615c-0.005,1.986,0.914,4.013,3.09,5.441c2.75,1.815,6.905,1.036,8.899-2.089c0.65-0.977,0.982-2.154,0.995-3.352
			c-0.001-0.129-0.006-0.257-0.015-0.385c0.009-0.128,0.014-0.256,0.015-0.385c-0.013-1.198-0.345-2.376-0.995-3.352
			c-1.994-3.125-6.15-3.904-8.899-2.089c-2.176,1.428-3.095,3.455-3.09,5.441c0,0.128,0.003,0.256,0.011,0.385
			C288.395-124.872,288.391-124.743,288.392-124.615z M374.615-159.93c-3.187-0.544-5.93-4.772-5.912-8.236
			c-1.697,0.535-3.683-0.021-4.824-1.386c-0.925-1.154-0.907-2.699-0.842-4.097c2.132-0.649,3.611-1.002,5.688-3.971
			c4.165-6.413,3.893-13.837,4.231-15.567c-2.206-0.403-4.371-1.275-6.052-2.791c-4.326,3.369-11.133,21.157-18.259,20.849
			c-4.165-0.411-4.4-3.924-3.857-5.577c2.106-6.572,16.725-12.48,20.688-16.589c-1.307-1.732-2.297-3.724-2.628-5.884
			c-7.292,0.031-18.223,2.507-19.573,9.705c-4.319,0.694-6.341-2.354-5.489-5.561c-3.518-0.179-6.432-2.205-7.681-4.355
			c-8.227,0.044-16.453-0.029-24.68,0.045c-0.384,2.39-1.529,4.307-3.088,5.682c-1.375,1.56-3.293,2.704-5.682,3.088
			c-0.074,8.227-0.001,16.453-0.045,24.68c2.15,1.25,4.176,4.163,4.355,7.682c3.207-0.852,6.256,1.17,5.561,5.489
			c-7.198,1.35-9.674,12.281-9.705,19.573c2.16,0.331,4.153,1.32,5.884,2.628c4.109-3.964,10.016-18.582,16.589-20.688
			c1.653-0.542,5.166-0.308,5.577,3.857c0.308,7.126-17.48,13.933-20.849,18.259c1.516,1.681,2.387,3.847,2.791,6.052
			c1.73-0.338,9.154-0.066,15.567-4.231c2.969-2.077,3.322-3.557,3.971-5.688c1.398-0.064,2.943-0.083,4.097,0.842
			c1.366,1.142,1.922,3.127,1.386,4.824c3.464-0.019,7.692,2.724,8.236,5.912c-0.022,0.129-0.05,0.257-0.084,0.385
			c0.034,0.127,0.062,0.256,0.084,0.385c-0.544,3.187-4.772,5.93-8.236,5.912c0.535,1.697-0.021,3.683-1.386,4.824
			c-1.154,0.925-2.699,0.907-4.097,0.842c-0.649-2.132-1.002-3.611-3.971-5.688c-6.413-4.165-13.837-3.893-15.567-4.231
			c-0.404,2.206-1.275,4.371-2.791,6.052c3.369,4.326,21.157,11.133,20.849,18.259c-0.411,4.165-3.924,4.4-5.577,3.857
			c-6.572-2.106-12.48-16.725-16.589-20.688c-1.732,1.307-3.724,2.297-5.884,2.628c0.031,7.292,2.507,18.223,9.705,19.573
			c0.694,4.319-2.354,6.341-5.561,5.489c-0.179,3.518-2.205,6.432-4.355,7.681c0.044,8.227-0.029,16.453,0.045,24.68
			c2.39,0.384,4.307,1.529,5.682,3.088c1.559,1.375,2.704,3.293,3.088,5.682c8.227,0.074,16.453,0.001,24.68,0.045
			c1.25-2.15,4.163-4.176,7.681-4.355c-0.851-3.207,1.17-6.256,5.489-5.561c1.35,7.198,12.281,9.674,19.573,9.705
			c0.331-2.16,1.32-4.153,2.628-5.884c-3.964-4.109-18.582-10.016-20.688-16.589c-0.542-1.653-0.308-5.166,3.857-5.577
			c7.126-0.308,13.933,17.48,18.259,20.849c1.681-1.516,3.847-2.387,6.052-2.791c-0.338-1.73-0.066-9.154-4.231-15.567
			c-2.077-2.969-3.557-3.322-5.688-3.971c-0.064-1.398-0.083-2.943,0.842-4.097c1.142-1.366,3.127-1.922,4.824-1.386
			c-0.019-3.464,2.724-7.692,5.912-8.236c0.129,0.022,0.257,0.05,0.385,0.084c0.127-0.034,0.256-0.062,0.385-0.084
			c3.187,0.544,5.93,4.772,5.912,8.236c1.697-0.535,3.683,0.021,4.824,1.386c0.925,1.154,0.907,2.699,0.842,4.097
			c-2.132,0.649-3.611,1.002-5.688,3.971c-4.165,6.413-3.893,13.837-4.231,15.567c2.206,0.403,4.371,1.275,6.052,2.791
			c4.326-3.369,11.133-21.157,18.259-20.849c4.165,0.411,4.4,3.924,3.857,5.577c-2.106,6.572-16.725,12.48-20.688,16.589
			c1.307,1.732,2.297,3.724,2.628,5.884c7.292-0.031,18.223-2.507,19.573-9.705c4.319-0.694,6.341,2.354,5.489,5.561
			c3.518,0.179,6.432,2.205,7.681,4.355c8.227-0.044,16.453,0.029,24.68-0.045c0.384-2.39,1.529-4.307,3.088-5.682
			c1.375-1.56,3.293-2.704,5.682-3.088c0.074-8.227,0.001-16.453,0.045-24.68c-2.15-1.25-4.176-4.163-4.355-7.681
			c-3.207,0.851-6.256-1.17-5.561-5.489c7.198-1.35,9.674-12.281,9.705-19.573c-2.16-0.331-4.153-1.32-5.884-2.628
			c-4.109,3.964-10.016,18.582-16.589,20.688c-1.653,0.542-5.166,0.308-5.577-3.857c-0.308-7.126,17.48-13.933,20.849-18.259
			c-1.516-1.681-2.387-3.847-2.791-6.052c-1.73,0.338-9.154,0.066-15.567,4.231c-2.969,2.077-3.322,3.557-3.971,5.688
			c-1.398,0.064-2.943,0.083-4.097-0.842c-1.366-1.142-1.922-3.127-1.386-4.824c-3.464,0.019-7.692-2.724-8.236-5.912
			c0.022-0.129,0.05-0.257,0.084-0.385c-0.034-0.127-0.062-0.256-0.084-0.385c0.544-3.187,4.772-5.93,8.236-5.912
			c-0.535-1.697,0.021-3.683,1.386-4.824c1.154-0.925,2.699-0.907,4.097-0.842c0.649,2.132,1.002,3.611,3.971,5.688
			c6.413,4.165,13.837,3.893,15.567,4.231c0.404-2.206,1.275-4.371,2.791-6.052c-3.369-4.326-21.157-11.133-20.849-18.259
			c0.411-4.165,3.924-4.4,5.577-3.857c6.572,2.106,12.48,16.725,16.589,20.688c1.732-1.307,3.724-2.297,5.884-2.628
			c-0.031-7.292-2.507-18.223-9.705-19.573c-0.694-4.319,2.354-6.341,5.561-5.489c0.179-3.518,2.205-6.432,4.355-7.682
			c-0.044-8.227,0.029-16.453-0.045-24.68c-2.39-0.384-4.307-1.529-5.682-3.088c-1.559-1.375-2.704-3.293-3.088-5.682
			c-8.227-0.074-16.453-0.001-24.68-0.045c-1.25,2.15-4.163,4.176-7.681,4.355c0.851,3.207-1.17,6.256-5.489,5.561
			c-1.35-7.198-12.281-9.674-19.573-9.705c-0.331,2.16-1.32,4.153-2.628,5.884c3.964,4.109,18.582,10.016,20.688,16.589
			c0.542,1.653,0.308,5.166-3.857,5.577c-7.126,0.308-13.933-17.48-18.259-20.849c-1.681,1.516-3.847,2.387-6.052,2.791
			c0.338,1.73,0.066,9.154,4.231,15.567c2.077,2.969,3.557,3.322,5.688,3.971c0.064,1.398,0.083,2.943-0.842,4.097
			c-1.142,1.366-3.127,1.922-4.824,1.386c0.019,3.464-2.724,7.692-5.912,8.236c-0.129-0.022-0.257-0.05-0.385-0.084
			C374.873-159.98,374.744-159.952,374.615-159.93z M456.401-194.499c-0.001,0.213-0.117,24.435,0.192,24.593
			c2.782,1.491,4.361,4.635,4.582,7.707c3.232-1.036,6.094,1.57,5.457,5.376c-0.341,0.355-8.911,0.666-9.816,19.566
			c3.801,0.745,4.574,1.647,6.318,2.772c6.075-6.809,11.677-22.078,18.765-20.865c3.113,0.618,3.753,3.495,3.307,4.979
			c-1.56,6.967-14.963,11.673-20.83,17.176c1.253,1.819,2.279,3.824,2.673,6.017c17.846-0.407,19.328-9.523,19.488-9.735
			c4.864-0.63,5.992,3.452,5.261,5.609c4.431-0.078,8.093,3.9,8.199,5.922c-0.006,0.122-0.026,0.25-0.057,0.385
			c0.032,0.134,0.051,0.263,0.057,0.385c-0.106,2.022-3.769,6-8.199,5.922c0.731,2.156-0.397,6.238-5.261,5.609
			c-0.16-0.212-1.642-9.329-19.488-9.735c-0.394,2.193-1.42,4.198-2.673,6.017c5.867,5.503,19.27,10.209,20.83,17.176
			c0.446,1.484-0.195,4.361-3.307,4.979c-7.088,1.213-12.69-14.056-18.765-20.865c-1.744,1.124-2.517,2.026-6.318,2.772
			c0.905,18.9,9.475,19.211,9.816,19.566c0.636,3.805-2.225,6.412-5.457,5.376c-0.222,3.072-1.801,6.216-4.582,7.707
			c-0.31,0.157-0.193,24.38-0.192,24.593c9.257,1.673,10.86,12.141,5.248,17.151c-5.009,5.612-15.478,4.009-17.151-5.248
			c-0.213-0.001-24.435-0.117-24.593,0.192c-1.491,2.782-4.635,4.361-7.707,4.582c1.036,3.232-1.57,6.094-5.376,5.457
			c-0.355-0.341-0.665-8.911-19.566-9.816c-0.745,3.801-1.647,4.574-2.772,6.318c6.809,6.075,22.078,11.677,20.865,18.765
			c-0.618,3.113-3.495,3.753-4.979,3.307c-6.967-1.56-11.673-14.963-17.176-20.83c-1.819,1.253-3.824,2.279-6.017,2.673
			c0.407,17.846,9.523,19.328,9.735,19.488c0.63,4.864-3.452,5.992-5.609,5.261c0.078,4.431-3.9,8.093-5.922,8.199
			c-0.122-0.006-0.25-0.026-0.385-0.057c-0.134,0.032-0.263,0.051-0.385,0.057c-2.022-0.106-6-3.769-5.922-8.199
			c-2.156,0.731-6.238-0.397-5.609-5.261c0.212-0.16,9.329-1.642,9.735-19.488c-2.193-0.394-4.198-1.42-6.017-2.673
			c-5.503,5.867-10.209,19.27-17.176,20.83c-1.484,0.446-4.361-0.195-4.979-3.307c-1.213-7.088,14.056-12.69,20.865-18.765
			c-1.124-1.744-2.026-2.517-2.772-6.318c-18.9,0.905-19.211,9.475-19.566,9.816c-3.805,0.636-6.412-2.225-5.376-5.457
			c-3.072-0.222-6.216-1.801-7.707-4.582c-0.157-0.31-24.38-0.193-24.593-0.192c-1.673,9.257-12.141,10.86-17.151,5.248
			c-5.612-5.009-4.009-15.478,5.248-17.151c0.001-0.213,0.117-24.435-0.192-24.593c-2.782-1.491-4.361-4.635-4.582-7.707
			c-3.232,1.036-6.094-1.57-5.457-5.376c0.341-0.355,8.911-0.666,9.816-19.566c-3.801-0.745-4.574-1.647-6.318-2.772
			c-6.075,6.809-11.677,22.078-18.765,20.865c-3.113-0.618-3.753-3.495-3.307-4.979c1.56-6.967,14.963-11.673,20.83-17.176
			c-1.253-1.819-2.279-3.824-2.673-6.017c-17.846,0.407-19.328,9.523-19.488,9.735c-4.864,0.63-5.992-3.452-5.261-5.609
			c-4.431,0.078-8.093-3.9-8.199-5.922c0.006-0.122,0.026-0.25,0.057-0.385c-0.031-0.134-0.051-0.263-0.057-0.385
			c0.106-2.022,3.769-6,8.199-5.922c-0.731-2.156,0.397-6.238,5.261-5.609c0.16,0.212,1.642,9.329,19.488,9.735
			c0.394-2.193,1.42-4.198,2.673-6.017c-5.867-5.503-19.27-10.209-20.83-17.176c-0.446-1.484,0.195-4.361,3.307-4.979
			c7.088-1.213,12.69,14.056,18.765,20.865c1.744-1.124,2.517-2.026,6.318-2.772c-0.905-18.9-9.475-19.211-9.816-19.566
			c-0.636-3.805,2.225-6.412,5.457-5.376c0.222-3.072,1.801-6.216,4.582-7.707c0.31-0.157,0.193-24.38,0.192-24.593
			c-9.257-1.673-10.86-12.141-5.248-17.151c5.009-5.612,15.478-4.009,17.151,5.248c0.213,0.001,24.435,0.117,24.593-0.192
			c1.491-2.782,4.635-4.361,7.707-4.582c-1.036-3.232,1.57-6.094,5.376-5.457c0.355,0.341,0.665,8.911,19.566,9.816
			c0.745-3.801,1.647-4.574,2.772-6.318c-6.809-6.075-22.078-11.677-20.865-18.765c0.618-3.113,3.495-3.753,4.979-3.307
			c6.967,1.56,11.673,14.963,17.176,20.83c1.819-1.253,3.824-2.279,6.017-2.673c-0.407-17.846-9.523-19.328-9.735-19.488
			c-0.63-4.864,3.452-5.992,5.609-5.261c-0.078-4.431,3.9-8.093,5.922-8.199c0.122,0.006,0.25,0.026,0.385,0.057
			c0.134-0.031,0.263-0.051,0.385-0.057c2.022,0.106,6,3.769,5.922,8.199c2.156-0.731,6.238,0.397,5.609,5.261
			c-0.212,0.16-9.329,1.642-9.735,19.488c2.193,0.394,4.198,1.42,6.017,2.673c5.503-5.867,10.209-19.27,17.176-20.83
			c1.484-0.446,4.361,0.195,4.979,3.307c1.213,7.088-14.056,12.69-20.865,18.765c1.124,1.744,2.026,2.517,2.772,6.318
			c18.9-0.905,19.211-9.475,19.566-9.816c3.805-0.636,6.412,2.225,5.376,5.457c3.072,0.222,6.216,1.801,7.707,4.582
			c0.157,0.31,24.38,0.193,24.593,0.192c1.673-9.257,12.141-10.86,17.151-5.248C467.262-206.64,465.658-196.172,456.401-194.499z"/>
		<path d="M124.615-211.608c-1.986-0.005-4.013,0.914-5.441,3.09c-1.815,2.75-1.036,6.905,2.089,8.899
			c0.977,0.65,2.154,0.982,3.352,0.995c0.129-0.001,0.257-0.006,0.385-0.015c0.128,0.009,0.256,0.014,0.385,0.015
			c1.198-0.013,2.376-0.345,3.352-0.995c3.125-1.994,3.904-6.15,2.089-8.899c-1.428-2.176-3.455-3.095-5.441-3.09
			c-0.128,0-0.256,0.003-0.385,0.011C124.872-211.605,124.743-211.609,124.615-211.608z M211.608-125.385
			c0.005-1.986-0.914-4.013-3.09-5.441c-2.75-1.815-6.905-1.036-8.899,2.089c-0.65,0.977-0.982,2.154-0.995,3.352
			c0.001,0.129,0.006,0.257,0.015,0.385c-0.009,0.128-0.014,0.256-0.015,0.385c0.013,1.198,0.345,2.376,0.995,3.352
			c1.994,3.125,6.15,3.904,8.899,2.089c2.176-1.428,3.095-3.455,3.09-5.441c0-0.128-0.003-0.256-0.011-0.385
			C211.605-125.128,211.609-125.257,211.608-125.385z M125.385-38.392c1.986,0.005,4.013-0.914,5.441-3.09
			c1.815-2.75,1.036-6.905-2.089-8.899c-0.977-0.65-2.154-0.982-3.352-0.995c-0.129,0.001-0.257,0.006-0.385,0.015
			c-0.128-0.009-0.256-0.014-0.385-0.015c-1.198,0.013-2.376,0.345-3.352,0.995c-3.125,1.994-3.904,6.15-2.089,8.899
			c1.428,2.176,3.455,3.095,5.441,3.09c0.128,0,0.256-0.003,0.385-0.011C125.128-38.395,125.257-38.391,125.385-38.392z
			 M38.392-124.615c-0.005,1.986,0.914,4.013,3.09,5.441c2.75,1.815,6.905,1.036,8.899-2.089c0.65-0.977,0.982-2.154,0.995-3.352
			c-0.001-0.129-0.006-0.257-0.015-0.385c0.009-0.128,0.014-0.256,0.015-0.385c-0.013-1.198-0.345-2.376-0.995-3.352
			c-1.994-3.125-6.15-3.904-8.899-2.089c-2.176,1.428-3.095,3.455-3.09,5.441c0,0.128,0.003,0.256,0.011,0.385
			C38.395-124.872,38.391-124.743,38.392-124.615z M124.615-159.93c-3.187-0.544-5.93-4.772-5.912-8.236
			c-1.697,0.535-3.683-0.021-4.824-1.386c-0.925-1.154-0.907-2.699-0.842-4.097c2.132-0.649,3.611-1.002,5.688-3.971
			c4.165-6.413,3.893-13.837,4.231-15.567c-2.206-0.403-4.371-1.275-6.052-2.791c-4.326,3.369-11.133,21.157-18.259,20.849
			c-4.165-0.411-4.4-3.924-3.857-5.577c2.106-6.572,16.725-12.48,20.688-16.589c-1.307-1.732-2.297-3.724-2.628-5.884
			c-7.292,0.031-18.223,2.507-19.573,9.705c-4.319,0.694-6.341-2.354-5.489-5.561c-3.518-0.179-6.432-2.205-7.681-4.355
			c-8.227,0.044-16.453-0.029-24.68,0.045c-0.384,2.39-1.529,4.307-3.088,5.682c-1.375,1.56-3.293,2.704-5.682,3.088
			c-0.074,8.227-0.001,16.453-0.045,24.68c2.15,1.25,4.176,4.163,4.355,7.682c3.207-0.852,6.256,1.17,5.561,5.489
			c-7.198,1.35-9.674,12.281-9.705,19.573c2.16,0.331,4.153,1.32,5.884,2.628c4.109-3.964,10.016-18.582,16.589-20.688
			c1.653-0.542,5.166-0.308,5.577,3.857c0.308,7.126-17.48,13.933-20.849,18.259c1.516,1.681,2.387,3.847,2.791,6.052
			c1.73-0.338,9.154-0.066,15.567-4.231c2.969-2.077,3.322-3.557,3.971-5.688c1.398-0.064,2.943-0.083,4.097,0.842
			c1.366,1.142,1.922,3.127,1.386,4.824c3.464-0.019,7.692,2.724,8.236,5.912c-0.022,0.129-0.05,0.257-0.084,0.385
			c0.034,0.127,0.062,0.256,0.084,0.385c-0.544,3.187-4.772,5.93-8.236,5.912c0.535,1.697-0.021,3.683-1.386,4.824
			c-1.154,0.925-2.699,0.907-4.097,0.842c-0.649-2.132-1.002-3.611-3.971-5.688c-6.413-4.165-13.837-3.893-15.567-4.231
			c-0.403,2.206-1.275,4.371-2.791,6.052c3.369,4.326,21.157,11.133,20.849,18.259c-0.411,4.165-3.924,4.4-5.577,3.857
			c-6.572-2.106-12.48-16.725-16.589-20.688c-1.732,1.307-3.724,2.297-5.884,2.628c0.031,7.292,2.507,18.223,9.705,19.573
			c0.694,4.319-2.354,6.341-5.561,5.489c-0.179,3.518-2.205,6.432-4.355,7.681c0.044,8.227-0.029,16.453,0.045,24.68
			c2.39,0.384,4.307,1.529,5.682,3.088c1.56,1.375,2.704,3.293,3.088,5.682c8.227,0.074,16.453,0.001,24.68,0.045
			c1.25-2.15,4.163-4.176,7.681-4.355c-0.851-3.207,1.17-6.256,5.489-5.561c1.35,7.198,12.281,9.674,19.573,9.705
			c0.331-2.16,1.32-4.153,2.628-5.884c-3.964-4.109-18.582-10.016-20.688-16.589c-0.542-1.653-0.308-5.166,3.857-5.577
			c7.126-0.308,13.933,17.48,18.259,20.849c1.681-1.516,3.847-2.387,6.052-2.791c-0.338-1.73-0.066-9.154-4.231-15.567
			c-2.077-2.969-3.557-3.322-5.688-3.971c-0.064-1.398-0.083-2.943,0.842-4.097c1.142-1.366,3.127-1.922,4.824-1.386
			c-0.019-3.464,2.724-7.692,5.912-8.236c0.129,0.022,0.257,0.05,0.385,0.084c0.127-0.034,0.256-0.062,0.385-0.084
			c3.187,0.544,5.93,4.772,5.912,8.236c1.697-0.535,3.683,0.021,4.824,1.386c0.925,1.154,0.907,2.699,0.842,4.097
			c-2.132,0.649-3.611,1.002-5.688,3.971c-4.165,6.413-3.893,13.837-4.231,15.567c2.206,0.403,4.371,1.275,6.052,2.791
			c4.326-3.369,11.133-21.157,18.259-20.849c4.165,0.411,4.4,3.924,3.857,5.577c-2.106,6.572-16.725,12.48-20.688,16.589
			c1.307,1.732,2.297,3.724,2.628,5.884c7.292-0.031,18.223-2.507,19.573-9.705c4.319-0.694,6.341,2.354,5.489,5.561
			c3.518,0.179,6.432,2.205,7.682,4.355c8.227-0.044,16.453,0.029,24.68-0.045c0.384-2.39,1.529-4.307,3.088-5.682
			c1.375-1.56,3.293-2.704,5.682-3.088c0.074-8.227,0.001-16.453,0.045-24.68c-2.15-1.25-4.176-4.163-4.355-7.681
			c-3.207,0.851-6.256-1.17-5.561-5.489c7.198-1.35,9.674-12.281,9.705-19.573c-2.16-0.331-4.153-1.32-5.884-2.628
			c-4.109,3.964-10.016,18.582-16.589,20.688c-1.653,0.542-5.166,0.308-5.577-3.857c-0.308-7.126,17.48-13.933,20.849-18.259
			c-1.516-1.681-2.387-3.847-2.791-6.052c-1.73,0.338-9.154,0.066-15.567,4.231c-2.969,2.077-3.322,3.557-3.971,5.688
			c-1.398,0.064-2.943,0.083-4.097-0.842c-1.366-1.142-1.922-3.127-1.386-4.824c-3.464,0.019-7.692-2.724-8.236-5.912
			c0.022-0.129,0.05-0.257,0.084-0.385c-0.034-0.127-0.062-0.256-0.084-0.385c0.544-3.187,4.772-5.93,8.236-5.912
			c-0.535-1.697,0.021-3.683,1.386-4.824c1.154-0.925,2.699-0.907,4.097-0.842c0.649,2.132,1.002,3.611,3.971,5.688
			c6.413,4.165,13.837,3.893,15.567,4.231c0.403-2.206,1.275-4.371,2.791-6.052c-3.369-4.326-21.157-11.133-20.849-18.259
			c0.411-4.165,3.924-4.4,5.577-3.857c6.572,2.106,12.48,16.725,16.589,20.688c1.732-1.307,3.724-2.297,5.884-2.628
			c-0.031-7.292-2.507-18.223-9.705-19.573c-0.694-4.319,2.354-6.341,5.561-5.489c0.179-3.518,2.205-6.432,4.355-7.682
			c-0.044-8.227,0.029-16.453-0.045-24.68c-2.39-0.384-4.307-1.529-5.682-3.088c-1.56-1.375-2.704-3.293-3.088-5.682
			c-8.227-0.074-16.453-0.001-24.68-0.045c-1.25,2.15-4.163,4.176-7.682,4.355c0.852,3.207-1.17,6.256-5.489,5.561
			c-1.35-7.198-12.281-9.674-19.573-9.705c-0.331,2.16-1.32,4.153-2.628,5.884c3.964,4.109,18.582,10.016,20.688,16.589
			c0.542,1.653,0.308,5.166-3.857,5.577c-7.126,0.308-13.933-17.48-18.259-20.849c-1.681,1.516-3.847,2.387-6.052,2.791
			c0.338,1.73,0.066,9.154,4.231,15.567c2.077,2.969,3.557,3.322,5.688,3.971c0.064,1.398,0.083,2.943-0.842,4.097
			c-1.142,1.366-3.127,1.922-4.824,1.386c0.019,3.464-2.724,7.692-5.912,8.236c-0.129-0.022-0.257-0.05-0.385-0.084
			C124.873-159.98,124.744-159.952,124.615-159.93z M206.401-194.499c-0.001,0.213-0.117,24.435,0.192,24.593
			c2.782,1.491,4.361,4.635,4.582,7.707c3.232-1.036,6.094,1.57,5.457,5.376c-0.341,0.355-8.911,0.666-9.816,19.566
			c3.801,0.745,4.574,1.647,6.318,2.772c6.075-6.809,11.677-22.078,18.765-20.865c3.113,0.618,3.753,3.495,3.307,4.979
			c-1.56,6.967-14.963,11.673-20.83,17.176c1.253,1.819,2.279,3.824,2.673,6.017c17.846-0.407,19.328-9.523,19.488-9.735
			c4.864-0.63,5.992,3.452,5.261,5.609c4.431-0.078,8.093,3.9,8.199,5.922c-0.006,0.122-0.026,0.25-0.057,0.385
			c0.031,0.134,0.051,0.263,0.057,0.385c-0.106,2.022-3.769,6-8.199,5.922c0.731,2.156-0.397,6.238-5.261,5.609
			c-0.16-0.212-1.642-9.329-19.488-9.735c-0.394,2.193-1.42,4.198-2.673,6.017c5.867,5.503,19.27,10.209,20.83,17.176
			c0.446,1.484-0.195,4.361-3.307,4.979c-7.088,1.213-12.69-14.056-18.765-20.865c-1.744,1.124-2.517,2.026-6.318,2.772
			c0.905,18.9,9.475,19.211,9.816,19.566c0.636,3.805-2.225,6.412-5.457,5.376c-0.222,3.072-1.801,6.216-4.582,7.707
			c-0.31,0.157-0.193,24.38-0.192,24.593c9.257,1.673,10.86,12.141,5.248,17.151c-5.009,5.612-15.478,4.009-17.151-5.248
			c-0.213-0.001-24.435-0.117-24.593,0.192c-1.491,2.782-4.635,4.361-7.707,4.582c1.036,3.232-1.57,6.094-5.376,5.457
			c-0.355-0.341-0.666-8.911-19.566-9.816c-0.745,3.801-1.647,4.574-2.772,6.318c6.809,6.075,22.078,11.677,20.865,18.765
			c-0.618,3.113-3.495,3.753-4.979,3.307c-6.967-1.56-11.673-14.963-17.176-20.83c-1.819,1.253-3.824,2.279-6.017,2.673
			c0.407,17.846,9.523,19.328,9.735,19.488c0.63,4.864-3.452,5.992-5.609,5.261c0.078,4.431-3.9,8.093-5.922,8.199
			c-0.122-0.006-0.25-0.026-0.385-0.057c-0.134,0.032-0.263,0.051-0.385,0.057c-2.022-0.106-6-3.769-5.922-8.199
			c-2.156,0.731-6.238-0.397-5.609-5.261c0.212-0.16,9.329-1.642,9.735-19.488c-2.193-0.394-4.198-1.42-6.017-2.673
			c-5.503,5.867-10.209,19.27-17.176,20.83c-1.484,0.446-4.361-0.195-4.979-3.307c-1.213-7.088,14.056-12.69,20.865-18.765
			c-1.124-1.744-2.026-2.517-2.772-6.318c-18.9,0.905-19.211,9.475-19.566,9.816c-3.805,0.636-6.412-2.225-5.376-5.457
			c-3.072-0.222-6.216-1.801-7.707-4.582c-0.157-0.31-24.38-0.193-24.593-0.192c-1.673,9.257-12.141,10.86-17.151,5.248
			c-5.612-5.009-4.009-15.478,5.248-17.151c0.001-0.213,0.117-24.435-0.192-24.593c-2.782-1.491-4.361-4.635-4.582-7.707
			c-3.232,1.036-6.094-1.57-5.457-5.376c0.341-0.355,8.911-0.666,9.816-19.566c-3.801-0.745-4.574-1.647-6.318-2.772
			C30.79-108.705,25.188-93.435,18.1-94.648c-3.113-0.618-3.753-3.495-3.307-4.979c1.56-6.967,14.963-11.673,20.83-17.176
			c-1.253-1.819-2.279-3.824-2.673-6.017c-17.846,0.407-19.328,9.523-19.488,9.735c-4.864,0.63-5.992-3.452-5.261-5.609
			c-4.431,0.078-8.093-3.9-8.199-5.922c0.006-0.122,0.026-0.25,0.057-0.385c-0.032-0.134-0.051-0.263-0.057-0.385
			c0.106-2.022,3.769-6,8.199-5.922c-0.731-2.156,0.397-6.238,5.261-5.609c0.16,0.212,1.642,9.329,19.488,9.735
			c0.394-2.193,1.42-4.198,2.673-6.017c-5.867-5.503-19.27-10.209-20.83-17.176c-0.446-1.484,0.195-4.361,3.307-4.979
			c7.088-1.213,12.69,14.056,18.765,20.865c1.744-1.124,2.517-2.026,6.318-2.772c-0.905-18.9-9.475-19.211-9.816-19.566
			c-0.636-3.805,2.225-6.412,5.457-5.376c0.222-3.072,1.801-6.216,4.582-7.707c0.31-0.157,0.193-24.38,0.192-24.593
			c-9.257-1.673-10.86-12.141-5.248-17.151c5.009-5.612,15.478-4.009,17.151,5.248c0.213,0.001,24.435,0.117,24.593-0.192
			c1.491-2.782,4.635-4.361,7.707-4.582c-1.036-3.232,1.57-6.094,5.376-5.457c0.355,0.341,0.666,8.911,19.566,9.816
			c0.745-3.801,1.647-4.574,2.772-6.318c-6.809-6.075-22.078-11.677-20.865-18.765c0.618-3.113,3.495-3.753,4.979-3.307
			c6.967,1.56,11.673,14.963,17.176,20.83c1.819-1.253,3.824-2.279,6.017-2.673c-0.407-17.846-9.523-19.328-9.735-19.488
			c-0.63-4.864,3.452-5.992,5.609-5.261c-0.078-4.431,3.9-8.093,5.922-8.199c0.122,0.006,0.25,0.026,0.385,0.057
			c0.134-0.031,0.263-0.051,0.385-0.057c2.022,0.106,6,3.769,5.922,8.199c2.156-0.731,6.238,0.397,5.609,5.261
			c-0.212,0.16-9.329,1.642-9.735,19.488c2.193,0.394,4.198,1.42,6.017,2.673c5.503-5.867,10.209-19.27,17.176-20.83
			c1.484-0.446,4.361,0.195,4.979,3.307c1.213,7.088-14.056,12.69-20.865,18.765c1.124,1.744,2.026,2.517,2.772,6.318
			c18.9-0.905,19.211-9.475,19.566-9.816c3.805-0.636,6.412,2.225,5.376,5.457c3.072,0.222,6.216,1.801,7.707,4.582
			c0.157,0.31,24.38,0.193,24.593,0.192c1.673-9.257,12.141-10.86,17.151-5.248C217.262-206.64,215.658-196.172,206.401-194.499z"/>
		<path d="M249.615-391.608c-1.986-0.005-4.013,0.914-5.441,3.09c-1.815,2.75-1.036,6.905,2.089,8.899
			c0.977,0.65,2.154,0.982,3.352,0.995c0.129-0.001,0.257-0.006,0.385-0.015c0.128,0.009,0.256,0.014,0.385,0.015
			c1.198-0.013,2.376-0.345,3.352-0.995c3.125-1.994,3.904-6.15,2.089-8.899c-1.428-2.176-3.455-3.095-5.441-3.09
			c-0.128,0-0.256,0.003-0.385,0.011C249.872-391.605,249.743-391.609,249.615-391.608z M336.608-305.385
			c0.005-1.986-0.914-4.013-3.09-5.441c-2.75-1.815-6.905-1.036-8.899,2.089c-0.65,0.977-0.982,2.154-0.995,3.352
			c0.001,0.129,0.006,0.257,0.015,0.385c-0.009,0.128-0.014,0.256-0.015,0.385c0.013,1.198,0.345,2.376,0.995,3.352
			c1.994,3.125,6.15,3.904,8.899,2.089c2.176-1.428,3.095-3.455,3.09-5.441c0-0.128-0.003-0.256-0.011-0.385
			C336.605-305.128,336.609-305.257,336.608-305.385z M250.385-218.392c1.986,0.005,4.013-0.914,5.441-3.09
			c1.815-2.75,1.036-6.905-2.089-8.899c-0.977-0.65-2.154-0.982-3.352-0.995c-0.129,0.001-0.257,0.006-0.385,0.015
			c-0.128-0.009-0.256-0.014-0.385-0.015c-1.198,0.013-2.376,0.345-3.352,0.995c-3.125,1.994-3.904,6.15-2.089,8.899
			c1.428,2.176,3.455,3.095,5.441,3.09c0.128,0,0.256-0.003,0.385-0.011C250.128-218.395,250.257-218.391,250.385-218.392z
			 M163.392-304.615c-0.005,1.986,0.914,4.013,3.09,5.441c2.75,1.815,6.905,1.036,8.899-2.089c0.65-0.977,0.982-2.154,0.995-3.352
			c-0.001-0.129-0.006-0.257-0.015-0.385c0.009-0.128,0.014-0.256,0.015-0.385c-0.013-1.198-0.345-2.376-0.995-3.352
			c-1.994-3.125-6.15-3.904-8.899-2.089c-2.176,1.428-3.095,3.455-3.09,5.441c0,0.128,0.003,0.256,0.011,0.385
			C163.395-304.872,163.391-304.743,163.392-304.615z M249.615-339.93c-3.187-0.544-5.93-4.772-5.912-8.236
			c-1.697,0.535-3.683-0.021-4.824-1.386c-0.925-1.154-0.907-2.699-0.842-4.097c2.132-0.649,3.611-1.002,5.688-3.971
			c4.165-6.413,3.893-13.837,4.231-15.567c-2.206-0.404-4.371-1.275-6.052-2.791c-4.326,3.369-11.133,21.157-18.259,20.849
			c-4.165-0.411-4.4-3.924-3.857-5.577c2.106-6.572,16.725-12.48,20.688-16.589c-1.307-1.732-2.297-3.724-2.628-5.884
			c-7.292,0.031-18.223,2.507-19.573,9.705c-4.319,0.694-6.341-2.354-5.489-5.561c-3.518-0.179-6.432-2.205-7.682-4.355
			c-8.227,0.044-16.453-0.029-24.68,0.045c-0.384,2.39-1.529,4.307-3.088,5.682c-1.375,1.559-3.293,2.704-5.682,3.088
			c-0.074,8.227-0.001,16.453-0.045,24.68c2.15,1.25,4.176,4.163,4.355,7.681c3.207-0.851,6.256,1.17,5.561,5.489
			c-7.198,1.35-9.674,12.281-9.705,19.573c2.16,0.331,4.153,1.32,5.884,2.628c4.109-3.964,10.016-18.582,16.589-20.688
			c1.653-0.542,5.166-0.308,5.577,3.857c0.308,7.126-17.48,13.933-20.849,18.259c1.516,1.681,2.387,3.847,2.791,6.052
			c1.73-0.338,9.154-0.066,15.567-4.231c2.969-2.077,3.322-3.557,3.971-5.688c1.398-0.064,2.943-0.083,4.097,0.842
			c1.366,1.142,1.922,3.127,1.386,4.824c3.464-0.019,7.692,2.724,8.236,5.912c-0.022,0.129-0.05,0.257-0.084,0.385
			c0.034,0.127,0.062,0.256,0.084,0.385c-0.544,3.187-4.772,5.93-8.236,5.912c0.535,1.697-0.021,3.683-1.386,4.824
			c-1.154,0.925-2.699,0.907-4.097,0.842c-0.649-2.132-1.002-3.611-3.971-5.688c-6.413-4.165-13.837-3.893-15.567-4.231
			c-0.403,2.206-1.275,4.371-2.791,6.052c3.369,4.326,21.157,11.133,20.849,18.259c-0.411,4.165-3.924,4.4-5.577,3.857
			c-6.572-2.106-12.48-16.725-16.589-20.688c-1.732,1.307-3.724,2.297-5.884,2.628c0.031,7.292,2.507,18.223,9.705,19.573
			c0.694,4.319-2.354,6.341-5.561,5.489c-0.179,3.518-2.205,6.432-4.355,7.681c0.044,8.227-0.029,16.453,0.045,24.68
			c2.39,0.384,4.307,1.529,5.682,3.088c1.56,1.375,2.704,3.293,3.088,5.682c8.227,0.074,16.453,0.001,24.68,0.045
			c1.25-2.15,4.163-4.176,7.682-4.355c-0.852-3.207,1.17-6.256,5.489-5.561c1.35,7.198,12.281,9.674,19.573,9.705
			c0.331-2.16,1.32-4.153,2.628-5.884c-3.964-4.109-18.582-10.016-20.688-16.589c-0.542-1.653-0.308-5.166,3.857-5.577
			c7.126-0.308,13.933,17.48,18.259,20.849c1.681-1.516,3.847-2.387,6.052-2.791c-0.338-1.73-0.066-9.154-4.231-15.567
			c-2.077-2.969-3.557-3.322-5.688-3.971c-0.064-1.398-0.083-2.943,0.842-4.097c1.142-1.366,3.127-1.922,4.824-1.386
			c-0.019-3.464,2.724-7.692,5.912-8.236c0.129,0.022,0.257,0.05,0.385,0.084c0.127-0.034,0.256-0.062,0.385-0.084
			c3.187,0.544,5.93,4.772,5.912,8.236c1.697-0.535,3.683,0.021,4.824,1.386c0.925,1.154,0.907,2.699,0.842,4.097
			c-2.132,0.649-3.611,1.002-5.688,3.971c-4.165,6.413-3.893,13.837-4.231,15.567c2.206,0.403,4.371,1.275,6.052,2.791
			c4.326-3.369,11.133-21.157,18.259-20.849c4.165,0.411,4.4,3.924,3.857,5.577c-2.106,6.572-16.725,12.48-20.688,16.589
			c1.307,1.732,2.297,3.724,2.628,5.884c7.292-0.031,18.223-2.507,19.573-9.705c4.319-0.694,6.341,2.354,5.489,5.561
			c3.518,0.179,6.432,2.205,7.681,4.355c8.227-0.044,16.453,0.029,24.68-0.045c0.384-2.39,1.529-4.307,3.088-5.682
			c1.375-1.56,3.293-2.704,5.682-3.088c0.074-8.227,0.001-16.453,0.045-24.68c-2.15-1.25-4.176-4.163-4.355-7.681
			c-3.207,0.851-6.256-1.17-5.561-5.489c7.198-1.35,9.674-12.281,9.705-19.573c-2.16-0.331-4.153-1.32-5.884-2.628
			c-4.109,3.964-10.016,18.582-16.589,20.688c-1.653,0.542-5.166,0.308-5.577-3.857c-0.308-7.126,17.48-13.933,20.849-18.259
			c-1.516-1.681-2.387-3.847-2.791-6.052c-1.73,0.338-9.154,0.066-15.567,4.231c-2.969,2.077-3.322,3.557-3.971,5.688
			c-1.398,0.064-2.943,0.083-4.097-0.842c-1.366-1.142-1.922-3.127-1.386-4.824c-3.464,0.019-7.692-2.724-8.236-5.912
			c0.022-0.129,0.05-0.257,0.084-0.385c-0.034-0.127-0.062-0.256-0.084-0.385c0.544-3.187,4.772-5.93,8.236-5.912
			c-0.535-1.697,0.021-3.683,1.386-4.824c1.154-0.925,2.699-0.907,4.097-0.842c0.649,2.132,1.002,3.611,3.971,5.688
			c6.413,4.165,13.837,3.893,15.567,4.231c0.404-2.206,1.275-4.371,2.791-6.052c-3.369-4.326-21.157-11.133-20.849-18.259
			c0.411-4.165,3.924-4.4,5.577-3.857c6.572,2.106,12.48,16.725,16.589,20.688c1.732-1.307,3.724-2.297,5.884-2.628
			c-0.031-7.292-2.507-18.223-9.705-19.573c-0.694-4.319,2.354-6.341,5.561-5.489c0.179-3.518,2.205-6.432,4.355-7.681
			c-0.044-8.227,0.029-16.453-0.045-24.68c-2.39-0.384-4.307-1.529-5.682-3.088c-1.559-1.375-2.704-3.293-3.088-5.682
			c-8.227-0.074-16.453-0.001-24.68-0.045c-1.25,2.15-4.163,4.176-7.681,4.355c0.851,3.207-1.17,6.256-5.489,5.561
			c-1.35-7.198-12.281-9.674-19.573-9.705c-0.331,2.16-1.32,4.153-2.628,5.884c3.964,4.109,18.582,10.016,20.688,16.589
			c0.542,1.653,0.308,5.166-3.857,5.577c-7.126,0.308-13.933-17.48-18.259-20.849c-1.681,1.516-3.847,2.387-6.052,2.791
			c0.338,1.73,0.066,9.154,4.231,15.567c2.077,2.969,3.557,3.322,5.688,3.971c0.064,1.398,0.083,2.943-0.842,4.097
			c-1.142,1.366-3.127,1.922-4.824,1.386c0.019,3.464-2.724,7.692-5.912,8.236c-0.129-0.022-0.257-0.05-0.385-0.084
			C249.873-339.98,249.744-339.952,249.615-339.93z M331.401-374.499c-0.001,0.213-0.117,24.435,0.192,24.593
			c2.782,1.491,4.361,4.635,4.582,7.707c3.232-1.036,6.094,1.57,5.457,5.376c-0.341,0.355-8.911,0.665-9.816,19.566
			c3.801,0.745,4.574,1.647,6.318,2.772c6.075-6.809,11.677-22.078,18.765-20.865c3.113,0.618,3.753,3.495,3.307,4.979
			c-1.56,6.967-14.963,11.673-20.83,17.176c1.253,1.819,2.279,3.824,2.673,6.017c17.846-0.407,19.328-9.523,19.488-9.735
			c4.864-0.63,5.992,3.452,5.261,5.609c4.431-0.078,8.093,3.9,8.199,5.922c-0.006,0.122-0.026,0.25-0.057,0.385
			c0.032,0.134,0.051,0.263,0.057,0.385c-0.106,2.022-3.769,6-8.199,5.922c0.731,2.156-0.397,6.238-5.261,5.609
			c-0.16-0.212-1.642-9.329-19.488-9.735c-0.394,2.193-1.42,4.198-2.673,6.017c5.867,5.503,19.27,10.209,20.83,17.176
			c0.446,1.484-0.195,4.361-3.307,4.979c-7.088,1.213-12.69-14.056-18.765-20.865c-1.744,1.124-2.517,2.026-6.318,2.772
			c0.905,18.9,9.475,19.211,9.816,19.566c0.636,3.805-2.225,6.412-5.457,5.376c-0.222,3.072-1.801,6.216-4.582,7.707
			c-0.31,0.157-0.193,24.38-0.192,24.593c9.257,1.673,10.86,12.141,5.248,17.151c-5.009,5.612-15.478,4.009-17.151-5.248
			c-0.213-0.001-24.435-0.117-24.593,0.192c-1.491,2.782-4.635,4.361-7.707,4.582c1.036,3.232-1.57,6.094-5.376,5.457
			c-0.355-0.341-0.665-8.911-19.566-9.816c-0.745,3.801-1.647,4.574-2.772,6.318c6.809,6.075,22.078,11.677,20.865,18.765
			c-0.618,3.113-3.495,3.753-4.979,3.307c-6.967-1.56-11.673-14.963-17.176-20.83c-1.819,1.253-3.824,2.279-6.017,2.673
			c0.407,17.846,9.523,19.328,9.735,19.488c0.63,4.864-3.452,5.992-5.609,5.261c0.078,4.431-3.9,8.093-5.922,8.199
			c-0.122-0.006-0.25-0.026-0.385-0.057c-0.134,0.031-0.263,0.051-0.385,0.057c-2.022-0.106-6-3.769-5.922-8.199
			c-2.156,0.731-6.238-0.397-5.609-5.261c0.212-0.16,9.329-1.642,9.735-19.488c-2.193-0.394-4.198-1.42-6.017-2.673
			c-5.503,5.867-10.209,19.27-17.176,20.83c-1.484,0.446-4.361-0.195-4.979-3.307c-1.213-7.088,14.056-12.69,20.865-18.765
			c-1.124-1.744-2.026-2.517-2.772-6.318c-18.9,0.905-19.211,9.475-19.566,9.816c-3.805,0.636-6.412-2.225-5.376-5.457
			c-3.072-0.222-6.216-1.801-7.707-4.582c-0.157-0.31-24.38-0.193-24.593-0.192c-1.673,9.257-12.141,10.86-17.151,5.248
			c-5.612-5.009-4.009-15.478,5.248-17.151c0.001-0.213,0.117-24.435-0.192-24.593c-2.782-1.491-4.361-4.635-4.582-7.707
			c-3.232,1.036-6.094-1.57-5.457-5.376c0.341-0.355,8.911-0.665,9.816-19.566c-3.801-0.745-4.574-1.647-6.318-2.772
			c-6.075,6.809-11.677,22.078-18.765,20.865c-3.113-0.618-3.753-3.495-3.307-4.979c1.56-6.967,14.963-11.673,20.83-17.176
			c-1.253-1.819-2.279-3.824-2.673-6.017c-17.846,0.407-19.328,9.523-19.488,9.735c-4.864,0.63-5.992-3.452-5.261-5.609
			c-4.431,0.078-8.093-3.9-8.199-5.922c0.006-0.122,0.026-0.25,0.057-0.385c-0.032-0.134-0.051-0.263-0.057-0.385
			c0.106-2.022,3.769-6,8.199-5.922c-0.731-2.156,0.397-6.238,5.261-5.609c0.16,0.212,1.642,9.329,19.488,9.735
			c0.394-2.193,1.42-4.198,2.673-6.017c-5.867-5.503-19.27-10.209-20.83-17.176c-0.446-1.484,0.195-4.361,3.307-4.979
			c7.088-1.213,12.69,14.056,18.765,20.865c1.744-1.124,2.517-2.026,6.318-2.772c-0.905-18.9-9.475-19.211-9.816-19.566
			c-0.636-3.805,2.225-6.412,5.457-5.376c0.222-3.072,1.801-6.216,4.582-7.707c0.31-0.157,0.193-24.38,0.192-24.593
			c-9.257-1.673-10.86-12.141-5.248-17.151c5.009-5.612,15.478-4.009,17.151,5.248c0.213,0.001,24.435,0.117,24.593-0.192
			c1.491-2.782,4.635-4.361,7.707-4.582c-1.036-3.232,1.57-6.094,5.376-5.457c0.355,0.341,0.666,8.911,19.566,9.816
			c0.745-3.801,1.647-4.574,2.772-6.318c-6.809-6.075-22.078-11.677-20.865-18.765c0.618-3.113,3.495-3.753,4.979-3.307
			c6.967,1.56,11.673,14.963,17.176,20.83c1.819-1.253,3.824-2.279,6.017-2.673c-0.407-17.846-9.523-19.328-9.735-19.488
			c-0.63-4.864,3.452-5.992,5.609-5.261c-0.078-4.431,3.9-8.093,5.922-8.199c0.122,0.006,0.25,0.026,0.385,0.057
			c0.134-0.032,0.263-0.051,0.385-0.057c2.022,0.106,6,3.769,5.922,8.199c2.156-0.731,6.238,0.397,5.609,5.261
			c-0.212,0.16-9.329,1.642-9.735,19.488c2.193,0.394,4.198,1.42,6.017,2.673c5.503-5.867,10.209-19.27,17.176-20.83
			c1.484-0.446,4.361,0.195,4.979,3.307c1.213,7.088-14.056,12.69-20.865,18.765c1.124,1.744,2.026,2.517,2.772,6.318
			c18.9-0.905,19.211-9.475,19.566-9.816c3.805-0.636,6.412,2.225,5.376,5.457c3.072,0.222,6.216,1.801,7.707,4.582
			c0.157,0.31,24.38,0.193,24.593,0.192c1.673-9.257,12.141-10.86,17.151-5.248C342.262-386.64,340.658-376.172,331.401-374.499z"/>
		<path d="M374.615-571.608c-1.986-0.005-4.013,0.914-5.441,3.09c-1.815,2.75-1.036,6.905,2.089,8.899
			c0.977,0.65,2.154,0.982,3.352,0.995c0.129-0.001,0.257-0.006,0.385-0.015c0.128,0.009,0.256,0.014,0.385,0.015
			c1.198-0.013,2.376-0.345,3.352-0.995c3.125-1.994,3.904-6.15,2.089-8.899c-1.428-2.176-3.455-3.095-5.441-3.09
			c-0.128,0-0.256,0.003-0.385,0.011C374.872-571.605,374.743-571.609,374.615-571.608z M461.608-485.385
			c0.005-1.986-0.914-4.013-3.09-5.441c-2.75-1.815-6.905-1.036-8.899,2.089c-0.65,0.977-0.982,2.154-0.995,3.352
			c0.001,0.129,0.006,0.257,0.015,0.385c-0.009,0.128-0.014,0.256-0.015,0.385c0.013,1.198,0.345,2.376,0.995,3.352
			c1.994,3.125,6.15,3.904,8.899,2.089c2.176-1.428,3.095-3.455,3.09-5.441c0-0.128-0.003-0.256-0.011-0.385
			C461.605-485.128,461.609-485.257,461.608-485.385z M375.385-398.392c1.986,0.005,4.013-0.914,5.441-3.09
			c1.815-2.75,1.036-6.905-2.089-8.899c-0.977-0.65-2.154-0.982-3.352-0.995c-0.129,0.001-0.257,0.006-0.385,0.015
			c-0.128-0.009-0.256-0.014-0.385-0.015c-1.198,0.013-2.376,0.345-3.352,0.995c-3.125,1.994-3.904,6.15-2.089,8.899
			c1.428,2.176,3.455,3.095,5.441,3.09c0.128,0,0.256-0.003,0.385-0.011C375.128-398.395,375.257-398.391,375.385-398.392z
			 M288.392-484.615c-0.005,1.986,0.914,4.013,3.09,5.441c2.75,1.815,6.905,1.036,8.899-2.089c0.65-0.977,0.982-2.154,0.995-3.352
			c-0.001-0.129-0.006-0.257-0.015-0.385c0.009-0.128,0.014-0.256,0.015-0.385c-0.013-1.198-0.345-2.376-0.995-3.352
			c-1.994-3.125-6.15-3.904-8.899-2.089c-2.176,1.428-3.095,3.455-3.09,5.441c0,0.128,0.003,0.256,0.011,0.385
			C288.395-484.872,288.391-484.743,288.392-484.615z M374.615-519.93c-3.187-0.544-5.93-4.771-5.912-8.236
			c-1.697,0.535-3.683-0.021-4.824-1.386c-0.925-1.154-0.907-2.699-0.842-4.097c2.132-0.649,3.611-1.002,5.688-3.971
			c4.165-6.413,3.893-13.837,4.231-15.567c-2.206-0.404-4.371-1.275-6.052-2.791c-4.326,3.369-11.133,21.157-18.259,20.849
			c-4.165-0.411-4.4-3.924-3.857-5.577c2.106-6.572,16.725-12.479,20.688-16.589c-1.307-1.732-2.297-3.724-2.628-5.884
			c-7.292,0.031-18.223,2.507-19.573,9.705c-4.319,0.694-6.341-2.354-5.489-5.561c-3.518-0.179-6.432-2.205-7.681-4.355
			c-8.227,0.044-16.453-0.029-24.68,0.045c-0.384,2.39-1.529,4.307-3.088,5.682c-1.375,1.56-3.293,2.704-5.682,3.088
			c-0.074,8.227-0.001,16.453-0.045,24.68c2.15,1.25,4.176,4.163,4.355,7.682c3.207-0.852,6.256,1.17,5.561,5.489
			c-7.198,1.35-9.674,12.281-9.705,19.573c2.16,0.331,4.153,1.32,5.884,2.628c4.109-3.964,10.016-18.582,16.589-20.688
			c1.653-0.542,5.166-0.308,5.577,3.857c0.308,7.126-17.48,13.933-20.849,18.259c1.516,1.681,2.387,3.847,2.791,6.052
			c1.73-0.338,9.154-0.066,15.567-4.231c2.969-2.077,3.322-3.557,3.971-5.688c1.398-0.064,2.943-0.083,4.097,0.842
			c1.366,1.142,1.922,3.127,1.386,4.824c3.464-0.019,7.692,2.724,8.236,5.912c-0.022,0.129-0.05,0.257-0.084,0.385
			c0.034,0.127,0.062,0.256,0.084,0.385c-0.544,3.187-4.772,5.93-8.236,5.912c0.535,1.697-0.021,3.683-1.386,4.824
			c-1.154,0.925-2.699,0.907-4.097,0.842c-0.649-2.132-1.002-3.611-3.971-5.688c-6.413-4.165-13.837-3.893-15.567-4.231
			c-0.404,2.206-1.275,4.371-2.791,6.052c3.369,4.326,21.157,11.133,20.849,18.259c-0.411,4.165-3.924,4.4-5.577,3.857
			c-6.572-2.106-12.48-16.725-16.589-20.688c-1.732,1.307-3.724,2.297-5.884,2.628c0.031,7.292,2.507,18.223,9.705,19.573
			c0.694,4.319-2.354,6.341-5.561,5.489c-0.179,3.518-2.205,6.432-4.355,7.681c0.044,8.227-0.029,16.453,0.045,24.68
			c2.39,0.384,4.307,1.529,5.682,3.088c1.559,1.375,2.704,3.293,3.088,5.682c8.227,0.074,16.453,0.001,24.68,0.045
			c1.25-2.15,4.163-4.176,7.681-4.355c-0.851-3.207,1.17-6.256,5.489-5.561c1.35,7.198,12.281,9.674,19.573,9.705
			c0.331-2.16,1.32-4.153,2.628-5.884c-3.964-4.109-18.582-10.016-20.688-16.589c-0.542-1.653-0.308-5.166,3.857-5.577
			c7.126-0.308,13.933,17.48,18.259,20.849c1.681-1.516,3.847-2.387,6.052-2.791c-0.338-1.73-0.066-9.154-4.231-15.567
			c-2.077-2.969-3.557-3.322-5.688-3.971c-0.064-1.398-0.083-2.943,0.842-4.097c1.142-1.366,3.127-1.922,4.824-1.386
			c-0.019-3.464,2.724-7.692,5.912-8.236c0.129,0.022,0.257,0.05,0.385,0.084c0.127-0.034,0.256-0.062,0.385-0.084
			c3.187,0.544,5.93,4.772,5.912,8.236c1.697-0.535,3.683,0.021,4.824,1.386c0.925,1.154,0.907,2.699,0.842,4.097
			c-2.132,0.649-3.611,1.002-5.688,3.971c-4.165,6.413-3.893,13.837-4.231,15.567c2.206,0.404,4.371,1.275,6.052,2.791
			c4.326-3.369,11.133-21.157,18.259-20.849c4.165,0.411,4.4,3.924,3.857,5.577c-2.106,6.572-16.725,12.48-20.688,16.589
			c1.307,1.732,2.297,3.724,2.628,5.884c7.292-0.031,18.223-2.507,19.573-9.705c4.319-0.694,6.341,2.354,5.489,5.561
			c3.518,0.179,6.432,2.205,7.681,4.355c8.227-0.044,16.453,0.029,24.68-0.045c0.384-2.39,1.529-4.307,3.088-5.682
			c1.375-1.559,3.293-2.704,5.682-3.088c0.074-8.227,0.001-16.453,0.045-24.68c-2.15-1.25-4.176-4.163-4.355-7.681
			c-3.207,0.851-6.256-1.17-5.561-5.489c7.198-1.35,9.674-12.281,9.705-19.573c-2.16-0.331-4.153-1.32-5.884-2.628
			c-4.109,3.964-10.016,18.582-16.589,20.688c-1.653,0.542-5.166,0.308-5.577-3.857c-0.308-7.126,17.48-13.933,20.849-18.259
			c-1.516-1.681-2.387-3.847-2.791-6.052c-1.73,0.338-9.154,0.066-15.567,4.231c-2.969,2.077-3.322,3.557-3.971,5.688
			c-1.398,0.064-2.943,0.083-4.097-0.842c-1.366-1.142-1.922-3.127-1.386-4.824c-3.464,0.019-7.692-2.724-8.236-5.912
			c0.022-0.129,0.05-0.257,0.084-0.385c-0.034-0.127-0.062-0.256-0.084-0.385c0.544-3.187,4.772-5.93,8.236-5.912
			c-0.535-1.697,0.021-3.683,1.386-4.824c1.154-0.925,2.699-0.907,4.097-0.842c0.649,2.132,1.002,3.611,3.971,5.688
			c6.413,4.165,13.837,3.893,15.567,4.231c0.404-2.206,1.275-4.371,2.791-6.052c-3.369-4.326-21.157-11.133-20.849-18.259
			c0.411-4.165,3.924-4.4,5.577-3.857c6.572,2.106,12.48,16.725,16.589,20.688c1.732-1.307,3.724-2.297,5.884-2.628
			c-0.031-7.292-2.507-18.223-9.705-19.573c-0.694-4.319,2.354-6.341,5.561-5.489c0.179-3.518,2.205-6.432,4.355-7.682
			c-0.044-8.227,0.029-16.453-0.045-24.68c-2.39-0.384-4.307-1.529-5.682-3.088c-1.559-1.375-2.704-3.293-3.088-5.682
			c-8.227-0.074-16.453-0.001-24.68-0.045c-1.25,2.15-4.163,4.176-7.681,4.355c0.851,3.207-1.17,6.256-5.489,5.561
			c-1.35-7.198-12.281-9.674-19.573-9.705c-0.331,2.16-1.32,4.153-2.628,5.884c3.964,4.109,18.582,10.016,20.688,16.589
			c0.542,1.653,0.308,5.166-3.857,5.577c-7.126,0.308-13.933-17.48-18.259-20.849c-1.681,1.516-3.847,2.387-6.052,2.791
			c0.338,1.73,0.066,9.154,4.231,15.567c2.077,2.969,3.557,3.322,5.688,3.971c0.064,1.398,0.083,2.943-0.842,4.097
			c-1.142,1.366-3.127,1.922-4.824,1.386c0.019,3.464-2.724,7.692-5.912,8.236c-0.129-0.022-0.257-0.05-0.385-0.084
			C374.873-519.98,374.744-519.952,374.615-519.93z M456.401-554.499c-0.001,0.213-0.117,24.435,0.192,24.593
			c2.782,1.491,4.361,4.635,4.582,7.707c3.232-1.036,6.094,1.57,5.457,5.376c-0.341,0.355-8.911,0.666-9.816,19.566
			c3.801,0.745,4.574,1.647,6.318,2.772c6.075-6.809,11.677-22.078,18.765-20.865c3.113,0.618,3.753,3.495,3.307,4.979
			c-1.56,6.967-14.963,11.673-20.83,17.176c1.253,1.819,2.279,3.824,2.673,6.017c17.846-0.407,19.328-9.523,19.488-9.735
			c4.864-0.63,5.992,3.452,5.261,5.609c4.431-0.078,8.093,3.9,8.199,5.922c-0.006,0.122-0.026,0.25-0.057,0.385
			c0.032,0.134,0.051,0.263,0.057,0.385c-0.106,2.022-3.769,6-8.199,5.922c0.731,2.156-0.397,6.238-5.261,5.609
			c-0.16-0.212-1.642-9.329-19.488-9.735c-0.394,2.193-1.42,4.198-2.673,6.017c5.867,5.503,19.27,10.209,20.83,17.176
			c0.446,1.484-0.195,4.361-3.307,4.979c-7.088,1.213-12.69-14.056-18.765-20.865c-1.744,1.124-2.517,2.026-6.318,2.772
			c0.905,18.9,9.475,19.211,9.816,19.566c0.636,3.805-2.225,6.412-5.457,5.376c-0.222,3.072-1.801,6.216-4.582,7.707
			c-0.31,0.157-0.193,24.38-0.192,24.593c9.257,1.673,10.86,12.141,5.248,17.151c-5.009,5.612-15.478,4.009-17.151-5.248
			c-0.213-0.001-24.435-0.117-24.593,0.192c-1.491,2.782-4.635,4.361-7.707,4.582c1.036,3.232-1.57,6.094-5.376,5.457
			c-0.355-0.341-0.665-8.911-19.566-9.816c-0.745,3.801-1.647,4.574-2.772,6.318c6.809,6.075,22.078,11.677,20.865,18.765
			c-0.618,3.113-3.495,3.753-4.979,3.307c-6.967-1.56-11.673-14.963-17.176-20.83c-1.819,1.253-3.824,2.279-6.017,2.673
			c0.407,17.846,9.523,19.328,9.735,19.488c0.63,4.864-3.452,5.992-5.609,5.261c0.078,4.431-3.9,8.093-5.922,8.199
			c-0.122-0.006-0.25-0.026-0.385-0.057c-0.134,0.032-0.263,0.051-0.385,0.057c-2.022-0.106-6-3.769-5.922-8.199
			c-2.156,0.731-6.238-0.397-5.609-5.261c0.212-0.16,9.329-1.642,9.735-19.488c-2.193-0.394-4.198-1.42-6.017-2.673
			c-5.503,5.867-10.209,19.27-17.176,20.83c-1.484,0.446-4.361-0.195-4.979-3.307c-1.213-7.088,14.056-12.69,20.865-18.765
			c-1.124-1.744-2.026-2.517-2.772-6.318c-18.9,0.905-19.211,9.475-19.566,9.816c-3.805,0.636-6.412-2.225-5.376-5.457
			c-3.072-0.222-6.216-1.801-7.707-4.582c-0.157-0.31-24.38-0.193-24.593-0.192c-1.673,9.257-12.141,10.86-17.151,5.248
			c-5.612-5.009-4.009-15.478,5.248-17.151c0.001-0.213,0.117-24.435-0.192-24.593c-2.782-1.491-4.361-4.635-4.582-7.707
			c-3.232,1.036-6.094-1.57-5.457-5.376c0.341-0.355,8.911-0.665,9.816-19.566c-3.801-0.745-4.574-1.647-6.318-2.772
			c-6.075,6.809-11.677,22.078-18.765,20.865c-3.113-0.618-3.753-3.495-3.307-4.979c1.56-6.967,14.963-11.673,20.83-17.176
			c-1.253-1.819-2.279-3.824-2.673-6.017c-17.846,0.407-19.328,9.523-19.488,9.735c-4.864,0.63-5.992-3.452-5.261-5.609
			c-4.431,0.078-8.093-3.9-8.199-5.922c0.006-0.122,0.026-0.25,0.057-0.385c-0.031-0.134-0.051-0.263-0.057-0.385
			c0.106-2.022,3.769-6,8.199-5.922c-0.731-2.156,0.397-6.238,5.261-5.609c0.16,0.212,1.642,9.329,19.488,9.735
			c0.394-2.193,1.42-4.198,2.673-6.017c-5.867-5.503-19.27-10.209-20.83-17.176c-0.446-1.484,0.195-4.361,3.307-4.979
			c7.088-1.213,12.69,14.056,18.765,20.865c1.744-1.124,2.517-2.026,6.318-2.772c-0.905-18.9-9.475-19.211-9.816-19.566
			c-0.636-3.805,2.225-6.412,5.457-5.376c0.222-3.072,1.801-6.216,4.582-7.707c0.31-0.157,0.193-24.38,0.192-24.593
			c-9.257-1.673-10.86-12.141-5.248-17.151c5.009-5.612,15.478-4.009,17.151,5.248c0.213,0.001,24.435,0.117,24.593-0.192
			c1.491-2.782,4.635-4.361,7.707-4.582c-1.036-3.232,1.57-6.094,5.376-5.457c0.355,0.341,0.665,8.911,19.566,9.816
			c0.745-3.801,1.647-4.574,2.772-6.318c-6.809-6.075-22.078-11.677-20.865-18.765c0.618-3.112,3.495-3.753,4.979-3.307
			c6.967,1.56,11.673,14.963,17.176,20.83c1.819-1.253,3.824-2.279,6.017-2.673c-0.407-17.846-9.523-19.328-9.735-19.488
			c-0.63-4.864,3.452-5.992,5.609-5.261c-0.078-4.431,3.9-8.093,5.922-8.199c0.122,0.006,0.25,0.026,0.385,0.057
			c0.134-0.031,0.263-0.051,0.385-0.057c2.022,0.106,6,3.769,5.922,8.199c2.156-0.731,6.238,0.397,5.609,5.261
			c-0.212,0.16-9.329,1.642-9.735,19.488c2.193,0.394,4.198,1.42,6.017,2.673c5.503-5.867,10.209-19.27,17.176-20.83
			c1.484-0.446,4.361,0.195,4.979,3.307c1.213,7.088-14.056,12.69-20.865,18.765c1.124,1.744,2.026,2.517,2.772,6.318
			c18.9-0.905,19.211-9.475,19.566-9.816c3.805-0.636,6.412,2.225,5.376,5.457c3.072,0.222,6.216,1.8,7.707,4.582
			c0.157,0.31,24.38,0.193,24.593,0.192c1.673-9.257,12.141-10.86,17.151-5.248C467.262-566.64,465.658-556.172,456.401-554.499z"/>
		<path d="M124.615-571.608c-1.986-0.005-4.013,0.914-5.441,3.09c-1.815,2.75-1.036,6.905,2.089,8.899
			c0.977,0.65,2.154,0.982,3.352,0.995c0.129-0.001,0.257-0.006,0.385-0.015c0.128,0.009,0.256,0.014,0.385,0.015
			c1.198-0.013,2.376-0.345,3.352-0.995c3.125-1.994,3.904-6.15,2.089-8.899c-1.428-2.176-3.455-3.095-5.441-3.09
			c-0.128,0-0.256,0.003-0.385,0.011C124.872-571.605,124.743-571.609,124.615-571.608z M211.608-485.385
			c0.005-1.986-0.914-4.013-3.09-5.441c-2.75-1.815-6.905-1.036-8.899,2.089c-0.65,0.977-0.982,2.154-0.995,3.352
			c0.001,0.129,0.006,0.257,0.015,0.385c-0.009,0.128-0.014,0.256-0.015,0.385c0.013,1.198,0.345,2.376,0.995,3.352
			c1.994,3.125,6.15,3.904,8.899,2.089c2.176-1.428,3.095-3.455,3.09-5.441c0-0.128-0.003-0.256-0.011-0.385
			C211.605-485.128,211.609-485.257,211.608-485.385z M125.385-398.392c1.986,0.005,4.013-0.914,5.441-3.09
			c1.815-2.75,1.036-6.905-2.089-8.899c-0.977-0.65-2.154-0.982-3.352-0.995c-0.129,0.001-0.257,0.006-0.385,0.015
			c-0.128-0.009-0.256-0.014-0.385-0.015c-1.198,0.013-2.376,0.345-3.352,0.995c-3.125,1.994-3.904,6.15-2.089,8.899
			c1.428,2.176,3.455,3.095,5.441,3.09c0.128,0,0.256-0.003,0.385-0.011C125.128-398.395,125.257-398.391,125.385-398.392z
			 M38.392-484.615c-0.005,1.986,0.914,4.013,3.09,5.441c2.75,1.815,6.905,1.036,8.899-2.089c0.65-0.977,0.982-2.154,0.995-3.352
			c-0.001-0.129-0.006-0.257-0.015-0.385c0.009-0.128,0.014-0.256,0.015-0.385c-0.013-1.198-0.345-2.376-0.995-3.352
			c-1.994-3.125-6.15-3.904-8.899-2.089c-2.176,1.428-3.095,3.455-3.09,5.441c0,0.128,0.003,0.256,0.011,0.385
			C38.395-484.872,38.391-484.743,38.392-484.615z M124.615-519.93c-3.187-0.544-5.93-4.771-5.912-8.236
			c-1.697,0.535-3.683-0.021-4.824-1.386c-0.925-1.154-0.907-2.699-0.842-4.097c2.132-0.649,3.611-1.002,5.688-3.971
			c4.165-6.413,3.893-13.837,4.231-15.567c-2.206-0.404-4.371-1.275-6.052-2.791c-4.326,3.369-11.133,21.157-18.259,20.849
			c-4.165-0.411-4.4-3.924-3.857-5.577c2.106-6.572,16.725-12.479,20.688-16.589c-1.307-1.732-2.297-3.724-2.628-5.884
			c-7.292,0.031-18.223,2.507-19.573,9.705c-4.319,0.694-6.341-2.354-5.489-5.561c-3.518-0.179-6.432-2.205-7.681-4.355
			c-8.227,0.044-16.453-0.029-24.68,0.045c-0.384,2.39-1.529,4.307-3.088,5.682c-1.375,1.56-3.293,2.704-5.682,3.088
			c-0.074,8.227-0.001,16.453-0.045,24.68c2.15,1.25,4.176,4.163,4.355,7.682c3.207-0.852,6.256,1.17,5.561,5.489
			c-7.198,1.35-9.674,12.281-9.705,19.573c2.16,0.331,4.153,1.32,5.884,2.628c4.109-3.964,10.016-18.582,16.589-20.688
			c1.653-0.542,5.166-0.308,5.577,3.857c0.308,7.126-17.48,13.933-20.849,18.259c1.516,1.681,2.387,3.847,2.791,6.052
			c1.73-0.338,9.154-0.066,15.567-4.231c2.969-2.077,3.322-3.557,3.971-5.688c1.398-0.064,2.943-0.083,4.097,0.842
			c1.366,1.142,1.922,3.127,1.386,4.824c3.464-0.019,7.692,2.724,8.236,5.912c-0.022,0.129-0.05,0.257-0.084,0.385
			c0.034,0.127,0.062,0.256,0.084,0.385c-0.544,3.187-4.772,5.93-8.236,5.912c0.535,1.697-0.021,3.683-1.386,4.824
			c-1.154,0.925-2.699,0.907-4.097,0.842c-0.649-2.132-1.002-3.611-3.971-5.688c-6.413-4.165-13.837-3.893-15.567-4.231
			c-0.403,2.206-1.275,4.371-2.791,6.052c3.369,4.326,21.157,11.133,20.849,18.259c-0.411,4.165-3.924,4.4-5.577,3.857
			c-6.572-2.106-12.48-16.725-16.589-20.688c-1.732,1.307-3.724,2.297-5.884,2.628c0.031,7.292,2.507,18.223,9.705,19.573
			c0.694,4.319-2.354,6.341-5.561,5.489c-0.179,3.518-2.205,6.432-4.355,7.681c0.044,8.227-0.029,16.453,0.045,24.68
			c2.39,0.384,4.307,1.529,5.682,3.088c1.56,1.375,2.704,3.293,3.088,5.682c8.227,0.074,16.453,0.001,24.68,0.045
			c1.25-2.15,4.163-4.176,7.681-4.355c-0.851-3.207,1.17-6.256,5.489-5.561c1.35,7.198,12.281,9.674,19.573,9.705
			c0.331-2.16,1.32-4.153,2.628-5.884c-3.964-4.109-18.582-10.016-20.688-16.589c-0.542-1.653-0.308-5.166,3.857-5.577
			c7.126-0.308,13.933,17.48,18.259,20.849c1.681-1.516,3.847-2.387,6.052-2.791c-0.338-1.73-0.066-9.154-4.231-15.567
			c-2.077-2.969-3.557-3.322-5.688-3.971c-0.064-1.398-0.083-2.943,0.842-4.097c1.142-1.366,3.127-1.922,4.824-1.386
			c-0.019-3.464,2.724-7.692,5.912-8.236c0.129,0.022,0.257,0.05,0.385,0.084c0.127-0.034,0.256-0.062,0.385-0.084
			c3.187,0.544,5.93,4.772,5.912,8.236c1.697-0.535,3.683,0.021,4.824,1.386c0.925,1.154,0.907,2.699,0.842,4.097
			c-2.132,0.649-3.611,1.002-5.688,3.971c-4.165,6.413-3.893,13.837-4.231,15.567c2.206,0.404,4.371,1.275,6.052,2.791
			c4.326-3.369,11.133-21.157,18.259-20.849c4.165,0.411,4.4,3.924,3.857,5.577c-2.106,6.572-16.725,12.48-20.688,16.589
			c1.307,1.732,2.297,3.724,2.628,5.884c7.292-0.031,18.223-2.507,19.573-9.705c4.319-0.694,6.341,2.354,5.489,5.561
			c3.518,0.179,6.432,2.205,7.682,4.355c8.227-0.044,16.453,0.029,24.68-0.045c0.384-2.39,1.529-4.307,3.088-5.682
			c1.375-1.559,3.293-2.704,5.682-3.088c0.074-8.227,0.001-16.453,0.045-24.68c-2.15-1.25-4.176-4.163-4.355-7.681
			c-3.207,0.851-6.256-1.17-5.561-5.489c7.198-1.35,9.674-12.281,9.705-19.573c-2.16-0.331-4.153-1.32-5.884-2.628
			c-4.109,3.964-10.016,18.582-16.589,20.688c-1.653,0.542-5.166,0.308-5.577-3.857c-0.308-7.126,17.48-13.933,20.849-18.259
			c-1.516-1.681-2.387-3.847-2.791-6.052c-1.73,0.338-9.154,0.066-15.567,4.231c-2.969,2.077-3.322,3.557-3.971,5.688
			c-1.398,0.064-2.943,0.083-4.097-0.842c-1.366-1.142-1.922-3.127-1.386-4.824c-3.464,0.019-7.692-2.724-8.236-5.912
			c0.022-0.129,0.05-0.257,0.084-0.385c-0.034-0.127-0.062-0.256-0.084-0.385c0.544-3.187,4.772-5.93,8.236-5.912
			c-0.535-1.697,0.021-3.683,1.386-4.824c1.154-0.925,2.699-0.907,4.097-0.842c0.649,2.132,1.002,3.611,3.971,5.688
			c6.413,4.165,13.837,3.893,15.567,4.231c0.403-2.206,1.275-4.371,2.791-6.052c-3.369-4.326-21.157-11.133-20.849-18.259
			c0.411-4.165,3.924-4.4,5.577-3.857c6.572,2.106,12.48,16.725,16.589,20.688c1.732-1.307,3.724-2.297,5.884-2.628
			c-0.031-7.292-2.507-18.223-9.705-19.573c-0.694-4.319,2.354-6.341,5.561-5.489c0.179-3.518,2.205-6.432,4.355-7.682
			c-0.044-8.227,0.029-16.453-0.045-24.68c-2.39-0.384-4.307-1.529-5.682-3.088c-1.56-1.375-2.704-3.293-3.088-5.682
			c-8.227-0.074-16.453-0.001-24.68-0.045c-1.25,2.15-4.163,4.176-7.682,4.355c0.852,3.207-1.17,6.256-5.489,5.561
			c-1.35-7.198-12.281-9.674-19.573-9.705c-0.331,2.16-1.32,4.153-2.628,5.884c3.964,4.109,18.582,10.016,20.688,16.589
			c0.542,1.653,0.308,5.166-3.857,5.577c-7.126,0.308-13.933-17.48-18.259-20.849c-1.681,1.516-3.847,2.387-6.052,2.791
			c0.338,1.73,0.066,9.154,4.231,15.567c2.077,2.969,3.557,3.322,5.688,3.971c0.064,1.398,0.083,2.943-0.842,4.097
			c-1.142,1.366-3.127,1.922-4.824,1.386c0.019,3.464-2.724,7.692-5.912,8.236c-0.129-0.022-0.257-0.05-0.385-0.084
			C124.873-519.98,124.744-519.952,124.615-519.93z M206.401-554.499c-0.001,0.213-0.117,24.435,0.192,24.593
			c2.782,1.491,4.361,4.635,4.582,7.707c3.232-1.036,6.094,1.57,5.457,5.376c-0.341,0.355-8.911,0.666-9.816,19.566
			c3.801,0.745,4.574,1.647,6.318,2.772c6.075-6.809,11.677-22.078,18.765-20.865c3.113,0.618,3.753,3.495,3.307,4.979
			c-1.56,6.967-14.963,11.673-20.83,17.176c1.253,1.819,2.279,3.824,2.673,6.017c17.846-0.407,19.328-9.523,19.488-9.735
			c4.864-0.63,5.992,3.452,5.261,5.609c4.431-0.078,8.093,3.9,8.199,5.922c-0.006,0.122-0.026,0.25-0.057,0.385
			c0.031,0.134,0.051,0.263,0.057,0.385c-0.106,2.022-3.769,6-8.199,5.922c0.731,2.156-0.397,6.238-5.261,5.609
			c-0.16-0.212-1.642-9.329-19.488-9.735c-0.394,2.193-1.42,4.198-2.673,6.017c5.867,5.503,19.27,10.209,20.83,17.176
			c0.446,1.484-0.195,4.361-3.307,4.979c-7.088,1.213-12.69-14.056-18.765-20.865c-1.744,1.124-2.517,2.026-6.318,2.772
			c0.905,18.9,9.475,19.211,9.816,19.566c0.636,3.805-2.225,6.412-5.457,5.376c-0.222,3.072-1.801,6.216-4.582,7.707
			c-0.31,0.157-0.193,24.38-0.192,24.593c9.257,1.673,10.86,12.141,5.248,17.151c-5.009,5.612-15.478,4.009-17.151-5.248
			c-0.213-0.001-24.435-0.117-24.593,0.192c-1.491,2.782-4.635,4.361-7.707,4.582c1.036,3.232-1.57,6.094-5.376,5.457
			c-0.355-0.341-0.666-8.911-19.566-9.816c-0.745,3.801-1.647,4.574-2.772,6.318c6.809,6.075,22.078,11.677,20.865,18.765
			c-0.618,3.113-3.495,3.753-4.979,3.307c-6.967-1.56-11.673-14.963-17.176-20.83c-1.819,1.253-3.824,2.279-6.017,2.673
			c0.407,17.846,9.523,19.328,9.735,19.488c0.63,4.864-3.452,5.992-5.609,5.261c0.078,4.431-3.9,8.093-5.922,8.199
			c-0.122-0.006-0.25-0.026-0.385-0.057c-0.134,0.032-0.263,0.051-0.385,0.057c-2.022-0.106-6-3.769-5.922-8.199
			c-2.156,0.731-6.238-0.397-5.609-5.261c0.212-0.16,9.329-1.642,9.735-19.488c-2.193-0.394-4.198-1.42-6.017-2.673
			c-5.503,5.867-10.209,19.27-17.176,20.83c-1.484,0.446-4.361-0.195-4.979-3.307c-1.213-7.088,14.056-12.69,20.865-18.765
			c-1.124-1.744-2.026-2.517-2.772-6.318c-18.9,0.905-19.211,9.475-19.566,9.816c-3.805,0.636-6.412-2.225-5.376-5.457
			c-3.072-0.222-6.216-1.801-7.707-4.582c-0.157-0.31-24.38-0.193-24.593-0.192c-1.673,9.257-12.141,10.86-17.151,5.248
			c-5.612-5.009-4.009-15.478,5.248-17.151c0.001-0.213,0.117-24.435-0.192-24.593c-2.782-1.491-4.361-4.635-4.582-7.707
			c-3.232,1.036-6.094-1.57-5.457-5.376c0.341-0.355,8.911-0.665,9.816-19.566c-3.801-0.745-4.574-1.647-6.318-2.772
			c-6.075,6.809-11.677,22.078-18.765,20.865c-3.113-0.618-3.753-3.495-3.307-4.979c1.56-6.967,14.963-11.673,20.83-17.176
			c-1.253-1.819-2.279-3.824-2.673-6.017c-17.846,0.407-19.328,9.523-19.488,9.735c-4.864,0.63-5.992-3.452-5.261-5.609
			c-4.431,0.078-8.093-3.9-8.199-5.922c0.006-0.122,0.026-0.25,0.057-0.385c-0.032-0.134-0.051-0.263-0.057-0.385
			c0.106-2.022,3.769-6,8.199-5.922c-0.731-2.156,0.397-6.238,5.261-5.609c0.16,0.212,1.642,9.329,19.488,9.735
			c0.394-2.193,1.42-4.198,2.673-6.017c-5.867-5.503-19.27-10.209-20.83-17.176c-0.446-1.484,0.195-4.361,3.307-4.979
			c7.088-1.213,12.69,14.056,18.765,20.865c1.744-1.124,2.517-2.026,6.318-2.772c-0.905-18.9-9.475-19.211-9.816-19.566
			c-0.636-3.805,2.225-6.412,5.457-5.376c0.222-3.072,1.801-6.216,4.582-7.707c0.31-0.157,0.193-24.38,0.192-24.593
			c-9.257-1.673-10.86-12.141-5.248-17.151c5.009-5.612,15.478-4.009,17.151,5.248c0.213,0.001,24.435,0.117,24.593-0.192
			c1.491-2.782,4.635-4.361,7.707-4.582c-1.036-3.232,1.57-6.094,5.376-5.457c0.355,0.341,0.666,8.911,19.566,9.816
			c0.745-3.801,1.647-4.574,2.772-6.318c-6.809-6.075-22.078-11.677-20.865-18.765c0.618-3.112,3.495-3.753,4.979-3.307
			c6.967,1.56,11.673,14.963,17.176,20.83c1.819-1.253,3.824-2.279,6.017-2.673c-0.407-17.846-9.523-19.328-9.735-19.488
			c-0.63-4.864,3.452-5.992,5.609-5.261c-0.078-4.431,3.9-8.093,5.922-8.199c0.122,0.006,0.25,0.026,0.385,0.057
			c0.134-0.031,0.263-0.051,0.385-0.057c2.022,0.106,6,3.769,5.922,8.199c2.156-0.731,6.238,0.397,5.609,5.261
			c-0.212,0.16-9.329,1.642-9.735,19.488c2.193,0.394,4.198,1.42,6.017,2.673c5.503-5.867,10.209-19.27,17.176-20.83
			c1.484-0.446,4.361,0.195,4.979,3.307c1.213,7.088-14.056,12.69-20.865,18.765c1.124,1.744,2.026,2.517,2.772,6.318
			c18.9-0.905,19.211-9.475,19.566-9.816c3.805-0.636,6.412,2.225,5.376,5.457c3.072,0.222,6.216,1.8,7.707,4.582
			c0.157,0.31,24.38,0.193,24.593,0.192c1.673-9.257,12.141-10.86,17.151-5.248C217.262-566.64,215.658-556.172,206.401-554.499z"/>
	</g>
</pattern>
<rect fill="url(#New_Pattern)" width="2560" height="1600"/>
</svg>
