<?xml version="1.0" encoding="UTF-8" standalone="no"?>
<!DOCTYPE svg PUBLIC "-//W3C//DTD SVG 20010904//EN"
              "http://www.w3.org/TR/2001/REC-SVG-20010904/DTD/svg10.dtd">

<svg xmlns="http://www.w3.org/2000/svg"
     viewBox="50 100 400 270">
  <path id="Kijelölés #1"
        fill="white" stroke="white" stroke-width="1"
        d="M 219.00,144.00
           C 215.46,143.91 211.99,143.90 209.60,140.77
             207.37,137.86 208.05,132.73 212.02,131.74
             215.86,130.80 219.15,136.96 212.02,136.00
             214.56,140.79 216.96,140.97 222.00,142.00
             222.00,142.00 218.00,132.00 218.00,132.00
             224.44,133.10 222.25,134.94 228.00,140.00
             228.00,140.00 226.00,133.00 226.00,133.00
             226.00,133.00 235.00,137.00 235.00,137.00
             235.00,137.00 235.00,140.00 235.00,140.00
             235.00,140.00 234.00,140.00 234.00,140.00
             234.00,140.00 232.00,142.00 232.00,142.00
             238.57,142.17 243.53,144.32 245.97,151.00
             247.09,154.08 246.38,155.51 248.00,159.00
             248.00,159.00 249.00,142.00 249.00,142.00
             249.00,142.00 252.00,143.00 252.00,143.00
             252.00,143.00 251.00,159.00 251.00,159.00
             251.00,159.00 253.00,159.00 253.00,159.00
             253.09,148.70 255.65,142.63 267.00,142.00
             264.32,136.18 267.94,135.06 273.00,133.00
             273.00,133.00 272.00,140.00 272.00,140.00
             272.00,140.00 281.00,131.00 281.00,131.00
             281.75,136.18 279.78,137.29 278.00,142.00
             283.04,140.97 284.36,140.80 288.00,137.00
             288.00,137.00 283.00,137.00 283.00,137.00
             285.07,124.66 296.92,136.34 288.85,142.26
             286.80,143.77 282.67,144.22 280.00,145.00
             280.00,145.00 288.00,147.00 288.00,147.00
             284.85,156.21 278.09,148.52 274.00,145.00
             274.00,145.00 276.00,151.00 276.00,151.00
             264.48,154.79 266.35,150.44 268.00,144.00
             260.97,146.81 256.94,148.84 256.00,157.00
             260.22,154.56 261.04,153.90 260.00,149.00
             270.17,149.11 260.40,159.04 258.00,162.00
             258.00,162.00 269.00,157.00 269.00,157.00
             268.43,161.83 267.94,162.22 264.00,165.00
             271.41,164.14 272.01,161.57 274.00,155.00
             280.28,157.53 277.98,162.38 274.00,166.00
             275.37,168.25 275.37,167.75 274.00,170.00
             274.00,170.00 280.00,173.00 280.00,173.00
             280.00,173.00 283.00,167.00 283.00,167.00
             283.00,167.00 286.00,166.00 286.00,166.00
             283.51,161.66 282.83,159.94 284.00,155.00
             288.59,157.13 288.48,157.34 293.00,155.00
             293.66,160.09 291.57,160.46 287.00,161.00
             288.31,162.38 289.35,163.77 291.18,164.54
             293.97,165.73 304.01,165.56 305.56,162.28
             306.47,160.36 304.57,154.15 304.00,152.00
             304.00,152.00 307.00,151.00 307.00,151.00
             307.00,151.00 305.00,145.00 305.00,145.00
             313.68,143.09 312.74,153.16 313.03,159.00
             316.10,151.18 316.05,152.41 313.03,145.00
             313.03,145.00 310.00,135.00 310.00,135.00
             321.52,136.87 321.84,152.12 316.35,160.00
             310.85,167.87 306.71,166.74 299.00,169.00
             302.83,168.99 306.43,169.14 310.00,167.43
             319.73,162.77 321.66,150.05 329.09,143.14
             330.72,141.64 338.60,136.69 340.73,137.48
             342.58,138.17 343.37,141.31 344.00,143.00
             344.33,133.59 350.25,135.16 352.00,140.00
             348.45,141.17 347.44,141.79 350.00,145.00
             350.00,145.00 349.00,141.00 349.00,141.00
             353.45,140.62 355.01,138.86 357.00,135.00
             357.00,135.00 361.00,135.00 361.00,135.00
             360.50,141.07 359.41,141.00 354.00,143.00
             359.69,144.68 362.03,146.28 364.00,152.00
             358.63,152.69 358.67,150.13 353.00,146.00
             353.98,150.76 353.15,152.65 348.00,152.00
             348.00,152.00 349.00,146.00 349.00,146.00
             346.03,148.83 344.37,145.66 343.00,143.00
             343.00,143.00 337.00,142.00 337.00,142.00
             337.00,142.00 329.00,149.00 329.00,149.00
             335.74,148.12 341.24,146.94 345.00,154.00
             340.35,153.74 335.67,151.68 332.00,152.58
             325.08,154.28 323.48,159.50 319.62,163.91
             316.86,167.07 313.54,168.87 310.00,171.00
             318.49,168.29 322.88,162.05 330.00,157.99
             333.88,155.78 337.31,154.99 340.00,159.00
             340.00,159.00 327.00,165.76 327.00,165.76
             327.00,165.76 329.98,165.76 329.98,165.76
             332.09,165.36 335.23,165.86 333.83,168.83
             331.85,173.06 324.70,173.43 322.00,170.00
             307.45,176.14 301.29,173.68 287.00,168.00
             289.00,175.98 284.94,173.88 282.57,179.09
             281.61,181.19 281.86,183.77 282.00,186.00
             289.74,180.22 289.97,178.10 300.00,178.00
             300.00,178.00 302.00,187.00 302.00,187.00
             302.00,187.00 298.00,186.00 298.00,186.00
             296.80,189.33 296.39,189.22 293.00,190.00
             293.00,190.00 295.00,185.00 295.00,185.00
             288.29,184.97 281.93,190.83 277.00,195.00
             284.31,195.00 292.46,195.31 299.00,191.52
             307.54,186.57 314.14,176.89 325.00,179.00
             325.00,179.00 325.00,182.00 325.00,182.00
             325.00,182.00 314.00,186.00 314.00,186.00
             330.12,186.41 321.03,194.97 337.00,195.00
             350.69,195.03 388.96,195.98 400.00,194.00
             396.39,187.95 392.82,192.93 390.02,189.40
             388.52,187.51 388.61,181.77 392.15,180.40
             395.59,179.07 402.93,185.72 402.18,176.00
             402.18,176.00 402.18,173.00 402.18,173.00
             409.92,174.31 410.61,179.93 405.00,185.00
             405.00,185.00 408.00,190.00 408.00,190.00
             408.00,190.00 401.00,189.00 401.00,189.00
             401.00,189.00 405.37,193.98 405.37,193.98
             405.37,193.98 426.00,195.00 426.00,195.00
             424.29,199.87 421.64,198.99 417.00,199.00
             417.00,199.00 360.00,199.00 360.00,199.00
             360.00,199.00 149.00,199.00 149.00,199.00
             149.00,199.00 92.00,199.00 92.00,199.00
             88.83,199.00 77.70,199.59 75.59,197.98
             74.38,197.05 74.43,196.23 74.00,195.00
             74.00,195.00 93.78,193.98 93.78,193.98
             93.78,193.98 97.00,190.00 97.00,190.00
             97.00,190.00 92.00,190.00 92.00,190.00
             92.00,190.00 95.00,185.00 95.00,185.00
             89.30,179.85 89.89,174.33 98.00,173.00
             97.47,175.42 95.96,179.53 98.55,181.30
             101.76,183.50 108.86,175.95 110.67,184.04
             110.86,184.90 110.86,186.09 110.67,186.94
             109.49,192.09 104.42,190.15 102.46,191.29
             99.07,193.25 104.53,194.81 106.01,194.98
             106.01,194.98 109.00,194.98 109.00,194.98
             109.00,194.98 162.00,194.98 162.00,194.98
             164.70,195.00 168.37,195.23 170.74,193.83
             175.27,191.14 174.10,186.61 185.00,186.00
             179.28,180.73 177.21,185.30 175.00,179.00
             186.24,176.82 192.25,186.76 201.00,191.64
             207.23,195.11 215.07,195.00 222.00,195.00
             217.79,190.30 211.60,184.74 205.00,185.00
             205.00,185.00 207.00,190.00 207.00,190.00
             203.19,189.35 203.08,189.25 201.00,186.00
             201.00,186.00 198.00,187.00 198.00,187.00
             198.00,187.00 199.00,179.00 199.00,179.00
             207.97,176.48 211.18,180.99 218.00,186.00
             218.98,172.53 210.34,178.65 213.00,168.00
             198.71,173.68 192.55,176.14 178.00,170.00
             175.69,172.93 172.43,173.06 169.06,171.49
             167.42,170.72 164.96,168.69 166.17,166.61
             167.08,165.05 171.30,165.20 173.00,165.00
             173.00,165.00 160.00,159.00 160.00,159.00
             165.38,150.96 176.39,163.62 184.00,168.00
             178.96,162.70 173.68,153.04 166.00,152.25
             163.06,151.95 158.53,153.64 155.00,154.00
             158.98,146.54 165.17,148.03 172.00,150.00
             172.00,150.00 162.00,142.00 162.00,142.00
             162.00,142.00 157.00,143.00 157.00,143.00
             155.15,146.60 154.87,146.83 151.00,148.00
             151.38,144.79 152.69,142.02 149.00,141.00
             149.00,141.00 151.00,153.00 151.00,153.00
             146.51,151.57 146.37,150.54 146.00,146.00
             146.00,146.00 137.00,153.00 137.00,153.00
             136.24,146.82 140.38,145.13 145.00,142.00
             140.75,140.36 140.52,139.42 140.00,135.00
             144.50,135.75 144.66,137.05 148.00,140.00
             149.98,134.35 153.11,136.26 157.00,139.00
             157.98,138.13 158.39,137.22 160.02,137.17
             162.67,137.10 170.62,142.98 172.32,145.04
             181.04,155.61 183.90,173.14 202.00,168.00
             194.38,167.98 187.68,167.10 183.22,159.96
             178.08,151.71 177.65,136.43 190.00,135.00
             190.00,135.00 187.00,139.00 187.00,139.00
             188.15,145.66 184.86,145.75 184.52,151.00
             184.29,154.55 186.11,157.22 188.00,160.00
             186.30,153.02 186.30,147.06 193.00,143.00
             193.00,143.00 194.65,154.09 194.65,154.09
             194.88,156.81 193.59,159.59 194.65,161.85
             196.12,165.91 205.69,165.73 208.89,163.98
             210.52,163.08 210.89,162.30 212.00,161.00
             208.01,160.33 205.30,159.25 208.00,155.00
             208.00,155.00 209.00,158.00 209.00,158.00
             209.00,158.00 216.00,155.00 216.00,155.00
             216.97,159.84 216.11,161.66 214.00,166.00
             216.59,167.16 216.27,167.22 216.00,170.00
             216.00,170.00 219.00,173.00 219.00,173.00
             219.00,173.00 225.00,170.00 225.00,170.00
             225.00,170.00 223.00,168.00 223.00,168.00
             223.00,168.00 226.00,167.00 226.00,167.00
             222.20,162.58 218.88,158.96 225.00,155.00
             227.55,160.66 228.68,165.23 236.00,164.00
             231.51,162.57 231.37,161.54 231.00,157.00
             236.77,158.97 235.50,162.93 242.00,160.00
             237.29,157.44 230.94,150.91 239.00,148.00
             238.74,153.12 238.94,153.76 243.00,157.00
             244.08,148.55 237.67,146.37 231.00,144.00
             231.00,144.00 234.00,152.00 234.00,152.00
             227.55,153.30 223.10,152.38 226.00,145.00
             221.75,148.46 215.15,156.47 212.00,147.00
             212.00,147.00 219.00,146.00 219.00,146.00
             219.00,146.00 219.00,144.00 219.00,144.00 Z
           M 124.00,169.00
           C 134.39,165.02 140.30,156.25 149.00,155.75
             152.88,155.53 160.15,157.46 158.35,162.86
             157.37,165.77 153.73,166.33 152.87,163.70
             152.27,161.86 153.28,160.53 154.00,159.00
             144.91,159.23 137.92,162.94 142.00,173.00
             142.00,173.00 146.00,170.00 146.00,170.00
             146.00,170.00 145.00,166.00 145.00,166.00
             151.57,168.34 150.74,173.37 147.00,178.00
             152.41,181.62 149.62,186.92 143.00,188.00
             143.00,188.00 146.00,185.00 146.00,185.00
             146.00,185.00 139.00,181.00 139.00,181.00
             139.00,181.00 135.00,185.00 135.00,185.00
             135.00,185.00 136.00,189.00 136.00,189.00
             132.41,187.84 128.65,184.53 131.04,180.39
             132.29,178.22 135.41,177.44 136.18,174.79
             137.00,173.00 136.43,171.69 136.18,170.00
             132.51,176.61 128.83,181.39 121.00,182.00
             121.68,177.90 121.93,177.77 125.00,175.00
             125.00,175.00 116.00,175.00 116.00,175.00
             116.00,175.00 114.00,166.00 114.00,166.00
             114.00,166.00 118.00,167.00 118.00,167.00
             120.17,163.29 120.60,162.45 125.00,163.00
             125.00,163.00 124.00,169.00 124.00,169.00 Z
           M 346.00,159.00
           C 346.75,161.03 348.45,165.10 344.83,165.56
             344.06,165.66 343.20,165.44 342.58,164.96
             340.17,163.09 340.02,154.98 352.00,156.10
             360.67,156.92 365.27,164.89 376.00,169.00
             376.00,169.00 375.00,162.00 375.00,162.00
             379.14,162.69 379.71,162.96 381.00,167.00
             381.00,167.00 385.00,166.00 385.00,166.00
             385.00,166.00 384.00,175.00 384.00,175.00
             384.00,175.00 375.00,176.00 375.00,176.00
             378.35,177.89 378.37,178.24 379.00,182.00
             370.88,181.37 367.59,176.13 363.00,170.00
             363.07,171.96 362.96,173.97 364.02,175.73
             365.27,177.82 367.72,178.55 368.81,180.41
             371.19,184.46 367.59,187.81 364.00,189.00
             364.00,189.00 365.00,185.00 365.00,185.00
             365.00,185.00 361.00,181.00 361.00,181.00
             361.00,181.00 354.00,185.00 354.00,185.00
             354.00,185.00 357.00,188.00 357.00,188.00
             350.38,186.92 347.59,181.62 353.00,178.00
             349.22,173.32 348.32,168.31 355.00,166.00
             355.00,166.00 354.00,170.00 354.00,170.00
             354.00,170.00 359.00,173.00 359.00,173.00
             359.24,162.56 357.06,159.54 346.00,159.00 Z
           M 258.00,165.00
           C 258.00,165.00 259.00,175.00 259.00,175.00
             259.00,175.00 251.00,171.00 251.00,171.00
             251.44,172.22 252.79,175.30 252.80,176.40
             252.84,180.08 248.55,181.09 247.41,177.84
             246.71,175.84 248.24,172.86 249.00,171.00
             249.00,171.00 241.00,175.00 241.00,175.00
             241.00,175.00 241.00,166.00 241.00,166.00
             235.10,168.21 233.17,168.50 227.00,167.00
             228.83,172.10 229.40,171.97 227.00,177.00
             229.81,181.87 228.94,184.31 224.00,187.00
             224.00,187.00 226.00,183.00 226.00,183.00
             226.00,183.00 221.00,181.00 221.00,181.00
             221.03,190.39 221.90,192.50 232.01,193.00
             231.85,191.67 231.44,189.76 232.01,188.50
             233.06,186.29 235.72,187.79 236.15,190.12
             236.47,191.86 235.60,193.45 235.00,195.00
             239.68,195.00 244.12,195.86 248.00,193.00
             248.00,193.00 238.00,188.00 238.00,188.00
             238.00,188.00 239.00,184.00 239.00,184.00
             239.00,184.00 234.00,182.00 234.00,182.00
             234.00,182.00 234.00,179.00 234.00,179.00
             244.88,178.04 245.07,183.40 251.00,190.00
             252.72,181.93 257.93,178.29 266.00,179.00
             266.00,179.00 266.00,182.00 266.00,182.00
             266.00,182.00 261.00,184.00 261.00,184.00
             261.00,184.00 262.00,188.00 262.00,188.00
             262.00,188.00 252.00,194.00 252.00,194.00
             252.00,194.00 264.05,195.00 264.05,195.00
             263.75,193.27 263.17,190.91 264.05,189.29
             264.93,187.87 268.84,186.12 267.00,193.00
             276.86,192.75 278.96,190.54 279.00,181.00
             279.00,181.00 274.00,183.00 274.00,183.00
             274.00,183.00 275.00,187.00 275.00,187.00
             270.86,184.54 269.68,181.86 273.00,178.00
             270.51,173.30 270.27,173.06 272.00,168.00
             264.73,167.99 264.62,168.33 258.00,165.00 Z
           M 115.27,179.25
           C 120.81,178.84 119.92,184.62 117.61,185.83
             115.19,187.11 111.26,183.28 115.27,179.25 Z
           M 382.30,179.17
           C 388.02,178.56 387.00,184.45 384.59,185.68
             381.95,187.02 378.13,183.38 382.30,179.17 Z
           M 198.00,195.00
           C 191.89,187.86 181.24,185.81 176.00,195.00
             176.00,195.00 198.00,195.00 198.00,195.00 Z
           M 323.00,195.00
           C 319.30,185.17 307.45,188.64 302.00,195.00
             302.00,195.00 323.00,195.00 323.00,195.00 Z
           M 74.00,201.00
           C 80.28,199.22 94.79,200.00 102.00,200.00
             102.00,200.00 157.00,200.00 157.00,200.00
             157.00,200.00 337.00,200.00 337.00,200.00
             337.00,200.00 400.00,200.00 400.00,200.00
             406.58,200.00 420.84,198.66 426.00,202.00
             419.65,203.80 404.35,203.00 397.00,203.00
             397.00,203.00 342.00,203.00 342.00,203.00
             342.00,203.00 161.00,203.00 161.00,203.00
             161.00,203.00 99.00,203.00 99.00,203.00
             92.76,203.00 78.71,204.47 74.00,201.00 Z
           M 182.00,222.70
           C 185.29,221.96 186.65,221.93 190.00,222.01
             208.02,222.46 204.00,240.45 204.00,253.00
             204.00,261.54 206.01,272.42 196.00,276.26
             193.93,277.06 191.20,277.00 189.00,277.00
             176.44,277.00 173.06,270.71 173.00,259.00
             173.00,259.00 173.00,240.00 173.00,240.00
             173.04,231.90 174.05,226.37 182.00,222.70 Z
           M 189.00,228.91
           C 182.26,229.70 183.01,234.51 183.00,240.00
             183.00,240.00 183.00,260.00 183.00,260.00
             183.02,264.34 183.41,271.65 189.96,269.92
             195.36,268.50 194.99,262.38 195.00,258.00
             195.01,253.09 195.77,235.49 193.83,232.13
             192.46,229.77 191.37,229.60 189.00,228.91 Z
           M 312.00,262.00
           C 312.13,264.16 312.10,266.79 313.73,268.46
             316.59,271.37 320.33,267.97 319.73,263.00
             318.72,254.63 309.12,255.37 305.01,249.67
             302.83,246.66 302.91,242.57 303.02,239.00
             303.44,224.41 317.95,228.13 328.00,228.00
             328.00,228.00 328.00,242.00 328.00,242.00
             328.00,242.00 320.00,242.00 320.00,242.00
             319.66,239.96 319.38,237.18 317.51,235.88
             314.22,233.61 311.16,238.83 312.61,242.98
             314.43,248.17 320.89,248.95 324.79,251.96
             328.30,254.67 328.87,257.82 328.98,262.00
             329.10,265.97 329.16,270.46 326.35,273.69
             322.23,278.23 309.56,278.43 305.43,273.69
             302.52,270.50 303.00,266.07 303.00,262.00
             303.00,262.00 312.00,262.00 312.00,262.00 Z
           M 276.00,228.65
           C 278.94,228.04 279.97,227.94 283.00,228.02
             299.01,228.40 296.00,243.69 296.00,255.00
             296.00,262.96 297.67,273.28 288.00,276.35
             286.08,276.96 284.00,276.99 282.00,276.99
             264.47,276.99 268.00,262.36 268.00,250.00
             268.00,240.69 265.74,233.00 276.00,228.65 Z
           M 211.00,229.00
           C 211.00,229.00 225.00,229.00 225.00,229.00
             225.00,229.00 222.00,242.00 222.00,242.00
             222.00,242.00 222.00,264.00 222.00,264.00
             222.00,264.00 225.00,276.00 225.00,276.00
             225.00,276.00 211.00,276.00 211.00,276.00
             211.00,276.00 213.85,264.00 213.85,264.00
             213.85,264.00 213.85,237.00 213.85,237.00
             213.85,237.00 211.00,229.00 211.00,229.00 Z
           M 231.00,229.00
           C 231.00,229.00 243.49,230.02 243.49,230.02
             243.49,230.02 247.00,237.00 247.00,237.00
             247.00,237.00 251.87,252.00 251.87,252.00
             251.87,252.00 251.87,237.00 251.87,237.00
             251.87,237.00 250.00,229.00 250.00,229.00
             250.00,229.00 261.00,229.00 261.00,229.00
             261.00,229.00 259.00,241.00 259.00,241.00
             259.00,241.00 259.00,277.00 259.00,277.00
             259.00,277.00 250.42,275.83 250.42,275.83
             250.42,275.83 246.28,267.00 246.28,267.00
             246.28,267.00 240.00,247.00 240.00,247.00
             240.00,247.00 240.00,264.00 240.00,264.00
             240.00,264.00 243.00,277.00 243.00,277.00
             243.00,277.00 231.00,277.00 231.00,277.00
             231.00,277.00 234.00,262.00 234.00,262.00
             234.00,262.00 234.00,241.00 234.00,241.00
             234.00,241.00 231.00,229.00 231.00,229.00 Z
           M 281.10,234.58
           C 274.13,237.41 275.93,251.52 276.00,258.00
             276.05,261.81 276.33,270.89 282.02,270.46
             287.31,270.06 286.99,263.80 287.00,260.00
             287.01,255.77 287.66,239.97 285.98,237.15
             284.58,234.79 283.47,234.83 281.10,234.58 Z
           M 74.00,294.00
           C 80.67,292.11 102.72,293.00 111.00,293.00
             111.00,293.00 184.00,293.00 184.00,293.00
             184.00,293.00 425.00,293.00 425.00,293.00
             425.00,293.00 425.00,295.00 425.00,295.00
             425.00,295.00 178.00,295.00 178.00,295.00
             178.00,295.00 106.00,295.00 106.00,295.00
             99.55,295.00 78.73,295.88 74.00,294.00 Z
           M 74.00,297.00
           C 74.00,297.00 315.00,297.00 315.00,297.00
             315.00,297.00 389.00,297.00 389.00,297.00
             397.28,297.00 419.33,296.11 426.00,298.00
             426.00,298.00 426.00,300.00 426.00,300.00
             426.00,300.00 404.46,302.60 404.46,302.60
             404.46,302.60 401.00,307.00 401.00,307.00
             401.00,307.00 407.00,305.00 407.00,305.00
             407.42,308.16 407.65,308.16 405.00,310.00
             409.89,315.84 410.76,321.09 402.19,323.00
             402.19,323.00 402.19,320.00 402.19,320.00
             403.24,309.60 395.92,316.47 392.15,315.30
             388.61,314.19 388.17,308.04 390.60,305.75
             394.06,302.50 395.41,307.47 400.00,302.00
             393.26,300.36 384.10,301.00 377.00,301.00
             377.00,301.00 337.00,301.00 337.00,301.00
             325.14,301.02 329.46,303.56 321.99,307.91
             319.58,309.32 315.79,310.07 313.00,311.00
             313.00,311.00 325.00,314.00 325.00,314.00
             325.00,314.00 325.00,316.00 325.00,316.00
             314.86,318.78 307.93,309.61 300.00,304.55
             293.41,300.34 284.43,299.89 277.00,302.00
             285.37,305.27 286.75,311.08 295.00,310.00
             295.00,310.00 292.00,306.00 292.00,306.00
             296.07,305.70 296.71,306.12 298.00,310.00
             298.00,310.00 302.00,308.00 302.00,308.00
             301.88,309.79 301.86,311.22 301.24,312.96
             297.54,323.41 286.30,313.19 282.00,309.00
             282.00,309.00 282.00,319.00 282.00,319.00
             288.08,320.34 288.32,322.29 287.00,328.00
             293.73,324.28 303.24,321.50 311.00,322.09
             311.00,322.09 320.00,323.76 320.00,323.76
             322.90,324.05 325.19,322.53 329.00,323.76
             331.05,324.14 335.45,326.67 333.83,329.37
             333.02,330.73 328.63,330.73 327.00,331.00
             327.00,331.00 340.00,337.00 340.00,337.00
             340.00,337.00 340.00,339.00 340.00,339.00
             329.27,341.11 324.37,332.39 313.00,326.00
             313.00,326.00 319.68,332.09 319.68,332.09
             323.84,336.71 326.77,342.97 334.00,343.57
             337.02,343.82 341.44,341.67 345.00,341.00
             341.33,348.49 335.16,347.74 328.00,346.00
             328.00,346.00 338.00,354.00 338.00,354.00
             342.93,351.72 343.47,357.36 340.72,358.26
             337.69,359.26 329.37,353.17 327.52,350.96
             320.07,342.07 314.69,321.46 299.00,328.00
             306.17,328.02 311.36,328.73 315.89,335.09
             321.84,343.44 322.05,358.43 310.00,361.00
             310.00,361.00 312.89,351.00 312.89,351.00
             315.83,343.33 316.31,343.80 312.00,336.00
             313.26,343.04 313.84,350.53 305.00,352.00
             305.00,352.00 307.00,345.00 307.00,345.00
             307.00,345.00 304.00,344.00 304.00,344.00
             304.49,341.40 306.17,335.56 304.89,333.31
             302.71,329.52 291.56,330.95 288.00,332.00
             288.00,332.00 288.00,334.00 288.00,334.00
             292.30,335.52 293.59,336.27 293.00,341.00
             288.08,338.61 288.24,339.06 283.00,340.00
             283.00,340.00 284.00,326.00 284.00,326.00
             284.00,326.00 281.00,323.00 281.00,323.00
             281.00,323.00 274.00,325.00 274.00,325.00
             274.00,325.00 276.00,328.00 276.00,328.00
             269.51,326.02 269.41,323.17 273.00,318.00
             268.55,314.62 270.12,310.66 275.00,309.00
             275.00,309.00 274.00,312.00 274.00,312.00
             274.00,312.00 279.00,315.00 279.00,315.00
             278.91,305.53 276.64,303.24 267.00,303.00
             267.55,304.19 268.40,305.20 268.11,306.68
             267.59,309.29 263.15,309.01 263.44,304.94
             263.56,303.27 264.29,302.38 265.00,301.00
             265.00,301.00 252.00,301.00 252.00,301.00
             258.10,305.96 262.39,306.38 260.00,311.00
             260.00,311.00 266.00,313.00 266.00,313.00
             263.11,321.24 254.05,315.24 250.00,306.00
             246.17,315.97 236.69,320.67 234.00,313.00
             234.00,313.00 239.00,311.00 239.00,311.00
             239.06,305.53 243.84,304.39 248.00,301.00
             248.00,301.00 235.00,301.00 235.00,301.00
             235.56,302.09 236.07,302.61 236.40,303.98
             237.92,310.26 228.41,309.75 233.00,303.00
             223.95,303.23 221.12,305.98 221.00,315.00
             221.00,315.00 226.00,313.00 226.00,313.00
             226.00,313.00 225.00,309.00 225.00,309.00
             229.42,310.58 231.34,315.00 227.00,318.00
             230.01,322.66 230.14,323.38 227.00,328.00
             234.27,327.05 233.83,326.68 241.00,329.00
             241.00,329.00 241.00,320.00 241.00,320.00
             241.00,320.00 249.00,325.00 249.00,325.00
             248.33,323.67 247.10,321.41 246.80,320.02
             245.60,314.39 251.74,313.21 252.89,318.06
             253.47,320.51 252.02,322.89 251.00,325.00
             251.00,325.00 259.00,320.00 259.00,320.00
             259.00,320.00 259.00,329.00 259.00,329.00
             264.32,327.28 268.93,326.23 273.97,329.72
             278.44,332.85 280.32,337.88 273.97,340.00
             272.15,334.30 270.67,330.84 264.00,331.00
             268.09,333.48 268.45,334.28 269.00,339.00
             269.00,339.00 258.00,334.00 258.00,334.00
             258.00,334.00 258.00,336.00 258.00,336.00
             263.64,338.74 267.51,343.54 261.00,348.00
             261.00,342.77 260.88,341.45 256.00,339.00
             256.87,346.49 260.80,349.63 268.00,351.00
             268.00,351.00 266.00,343.00 266.00,343.00
             266.00,343.00 276.00,345.00 276.00,345.00
             276.00,345.00 274.00,350.00 274.00,350.00
             279.95,345.18 279.82,343.04 288.00,345.00
             286.45,349.44 284.83,348.69 280.00,351.00
             282.13,351.19 283.97,351.34 286.00,352.15
             287.33,352.68 288.66,353.38 289.69,354.42
             297.22,362.01 281.53,369.84 284.00,358.00
             284.00,358.00 287.00,359.00 287.00,359.00
             284.42,354.31 282.02,354.25 277.00,354.00
             277.00,354.00 282.00,363.00 282.00,363.00
             282.00,363.00 281.00,364.00 281.00,364.00
             275.46,362.00 275.52,359.59 272.00,355.00
             272.00,355.00 273.00,363.00 273.00,363.00
             273.00,363.00 264.00,358.00 264.00,358.00
             264.00,358.00 267.00,354.00 267.00,354.00
             255.80,351.16 253.11,349.53 253.00,337.00
             253.00,337.00 251.00,337.00 251.00,337.00
             251.00,337.00 252.00,353.00 252.00,353.00
             252.00,353.00 248.00,353.00 248.00,353.00
             248.00,347.83 249.19,341.33 246.00,337.00
             247.61,343.15 245.27,349.91 239.00,352.42
             239.00,352.42 232.00,354.00 232.00,354.00
             232.00,354.00 235.00,359.00 235.00,359.00
             235.00,359.00 227.00,363.00 227.00,363.00
             226.09,358.97 226.31,358.74 228.00,355.00
             222.86,360.14 224.86,362.46 218.00,364.00
             218.00,364.00 222.00,354.00 222.00,354.00
             216.98,354.25 214.58,354.31 212.00,359.00
             212.00,359.00 216.00,358.00 216.00,358.00
             218.82,371.49 200.71,359.91 211.15,353.14
             211.15,353.14 219.00,350.00 219.00,350.00
             219.00,350.00 211.00,348.00 211.00,348.00
             211.00,348.00 211.00,346.00 211.00,346.00
             218.76,342.43 219.69,345.57 226.00,350.00
             226.00,350.00 224.00,344.00 224.00,344.00
             224.00,344.00 233.00,342.00 233.00,342.00
             233.61,346.49 233.10,347.07 231.00,351.00
             237.92,349.85 243.41,346.74 243.00,339.00
             238.24,341.96 239.34,342.91 238.00,348.00
             232.78,342.69 235.80,338.17 242.00,336.00
             242.00,336.00 242.00,334.00 242.00,334.00
             234.83,333.54 236.43,335.95 231.00,339.00
             231.42,333.83 232.02,333.28 236.00,330.00
             229.32,331.28 227.28,333.32 226.00,340.00
             219.17,337.80 221.94,333.50 225.00,329.00
             225.00,329.00 223.00,328.00 223.00,328.00
             223.00,328.00 223.00,327.00 223.00,327.00
             223.00,327.00 226.00,325.00 226.00,325.00
             226.00,325.00 219.00,323.00 219.00,323.00
             219.00,323.00 216.00,326.00 216.00,326.00
             216.00,326.00 217.00,330.00 217.00,330.00
             217.00,330.00 214.00,329.00 214.00,329.00
             214.00,329.00 217.00,339.00 217.00,339.00
             217.00,339.00 216.00,340.00 216.00,340.00
             210.82,338.55 211.18,338.55 206.00,340.00
             207.29,335.86 207.94,335.43 212.00,334.00
             210.59,332.88 209.78,331.97 208.00,331.31
             205.24,330.28 195.96,330.52 194.65,333.72
             193.59,335.52 194.82,338.07 194.65,340.96
             194.93,345.82 193.17,343.86 194.00,352.00
             185.57,349.44 187.29,343.10 187.00,336.00
             185.84,338.76 184.11,341.95 184.49,345.00
             185.17,350.36 188.26,349.66 187.00,357.00
             187.00,357.00 190.00,358.00 190.00,358.00
             190.00,358.00 190.00,360.00 190.00,360.00
             181.52,360.80 179.66,352.96 180.09,346.00
             180.81,334.30 187.49,328.11 199.00,328.00
             199.00,328.00 199.00,326.00 199.00,326.00
             189.77,327.25 186.07,328.79 180.91,337.00
             176.66,343.78 172.63,355.90 163.00,355.00
             162.53,356.35 162.40,357.73 160.74,358.26
             158.52,358.96 156.78,356.50 158.07,354.59
             159.06,353.11 161.10,353.40 163.29,352.35
             166.35,350.88 168.84,348.55 171.00,346.00
             164.80,347.51 157.40,348.31 155.00,341.00
             158.56,341.67 162.98,343.82 166.00,343.57
             173.40,342.95 179.80,332.25 185.00,327.00
             176.67,331.79 170.13,340.97 160.00,339.00
             160.00,339.00 160.00,337.00 160.00,337.00
             160.00,337.00 172.00,330.00 172.00,330.00
             157.09,332.18 171.97,317.00 178.00,326.00
             190.75,318.95 199.08,322.69 212.00,327.00
             212.19,321.55 212.41,320.23 218.00,319.00
             218.00,319.00 218.00,310.00 218.00,310.00
             210.46,315.03 208.59,318.50 199.00,317.00
             199.00,317.00 199.00,308.00 199.00,308.00
             199.00,308.00 200.00,310.00 200.00,310.00
             200.00,310.00 201.00,310.00 201.00,310.00
             203.07,306.59 203.24,306.36 207.00,305.00
             207.00,305.00 205.00,311.00 205.00,311.00
             212.05,310.19 217.27,304.86 223.00,301.00
             216.09,301.00 208.21,299.97 202.00,303.35
             193.31,308.08 185.94,318.86 175.00,316.00
             175.00,316.00 175.00,314.00 175.00,314.00
             175.00,314.00 187.00,310.00 187.00,310.00
             170.54,309.19 178.67,301.03 163.00,301.00
             163.00,301.00 100.00,301.00 100.00,301.00
             100.31,302.09 100.39,303.26 101.31,304.11
             102.92,305.58 111.56,302.62 110.72,310.98
             109.60,322.09 96.39,307.50 97.24,319.00
             97.24,319.00 98.00,323.00 98.00,323.00
             90.83,321.43 88.28,315.30 95.00,311.00
             90.19,305.67 94.06,305.06 99.00,307.00
             99.00,307.00 94.74,302.02 94.74,302.02
             94.74,302.02 74.00,301.00 74.00,301.00
             74.00,301.00 74.00,297.00 74.00,297.00 Z
           M 198.00,301.00
           C 198.00,301.00 176.00,301.00 176.00,301.00
             182.56,309.51 190.89,307.93 198.00,301.00 Z
           M 324.00,301.00
           C 324.00,301.00 302.00,302.00 302.00,302.00
             310.37,307.03 317.01,310.07 324.00,301.00 Z
           M 134.00,306.00
           C 134.00,306.00 138.00,314.00 138.00,314.00
             138.00,314.00 146.00,311.00 146.00,311.00
             145.65,310.70 142.93,308.71 144.74,308.21
             146.67,307.66 153.31,312.23 147.00,319.00
             152.50,322.81 150.00,327.28 145.00,330.00
             145.00,330.00 146.00,326.00 146.00,326.00
             146.00,326.00 141.00,323.00 141.00,323.00
             139.69,333.71 143.71,336.13 154.00,337.00
             152.78,334.63 151.44,328.52 156.64,330.63
             159.08,331.65 159.51,335.92 156.64,338.26
             154.56,340.02 150.63,340.16 148.00,339.89
             138.80,338.96 133.76,329.05 123.00,327.00
             123.00,327.00 125.00,334.00 125.00,334.00
             120.45,333.01 119.60,332.41 118.00,328.00
             118.00,328.00 115.00,330.00 115.00,330.00
             113.43,321.29 117.55,320.92 124.00,319.00
             124.00,319.00 121.00,314.00 121.00,314.00
             130.51,314.33 132.24,320.30 138.00,327.00
             137.53,325.15 136.89,321.70 135.99,320.21
             132.88,315.05 126.20,315.31 134.00,306.00 Z
           M 365.00,306.00
           C 365.00,306.00 367.44,308.22 367.44,308.22
             373.09,315.10 365.39,316.80 363.57,321.10
             362.79,322.98 362.94,325.03 363.00,327.00
             366.60,319.66 370.32,314.30 379.00,314.00
             379.00,314.00 376.00,320.00 376.00,320.00
             376.00,320.00 384.00,321.00 384.00,321.00
             384.00,321.00 385.00,330.00 385.00,330.00
             385.00,330.00 381.00,328.00 381.00,328.00
             380.14,333.01 378.89,333.43 373.90,334.00
             374.70,332.54 377.10,328.50 373.90,328.25
             371.52,328.07 367.79,331.07 366.00,332.37
             360.54,336.36 350.25,343.99 343.31,338.26
             337.92,333.81 344.58,325.51 348.00,334.00
             348.00,334.00 345.00,336.00 345.00,336.00
             350.24,337.02 356.95,335.90 358.85,329.98
             359.26,328.13 359.04,324.99 358.85,323.00
             358.85,323.00 354.00,326.00 354.00,326.00
             354.00,326.00 355.00,330.00 355.00,330.00
             349.58,328.13 347.53,322.55 353.00,319.00
             351.17,317.22 349.44,315.89 349.92,313.00
             350.50,309.54 354.00,306.00 357.00,310.00
             357.00,310.00 354.00,311.00 354.00,311.00
             360.66,313.85 362.79,312.78 365.00,306.00 Z
           M 115.30,310.17
           C 121.05,309.56 119.98,315.48 117.59,316.60
             115.06,317.79 111.08,314.41 115.30,310.17 Z
           M 382.27,310.17
           C 387.66,309.57 387.22,315.44 384.70,316.60
             382.06,317.81 378.10,314.44 382.27,310.17 Z
           M 147.00,350.00
           C 145.86,345.47 146.02,344.55 150.00,342.00
             150.78,345.82 151.04,351.64 149.00,355.00
             152.11,352.77 151.35,351.58 151.00,348.00
             152.53,348.35 154.04,348.45 155.17,349.74
             159.30,354.41 151.34,365.52 148.00,356.00
             148.00,356.00 141.00,361.00 141.00,361.00
             139.99,356.11 140.93,355.56 145.00,353.00
             139.96,350.52 137.91,349.46 136.00,344.00
             141.37,343.31 141.33,345.87 147.00,350.00 Z
           M 348.00,343.00
           C 353.02,342.84 353.44,344.32 354.00,349.00
             354.00,349.00 362.00,342.00 362.00,342.00
             364.50,348.44 360.07,349.54 356.00,354.00
             360.49,355.43 360.63,356.46 361.00,361.00
             361.00,361.00 349.00,354.00 349.00,354.00
             349.00,354.00 348.00,351.00 348.00,351.00
             348.88,354.39 349.03,354.18 352.00,356.00
             352.00,356.00 352.00,359.24 352.00,359.24
             350.40,359.35 348.79,359.86 347.13,359.24
             341.97,358.30 341.82,344.51 350.00,350.00
             350.00,350.00 348.00,343.00 348.00,343.00 Z" />
</svg>
